<svg version="1.1" id="Layer_1" xmlns="http://www.w3.org/2000/svg" xmlns:xlink="http://www.w3.org/1999/xlink" x="0px" y="0px"
	 width="100%" viewBox="0 0 1024 1024" enable-background="new 0 0 1024 1024" xml:space="preserve">
<path fill="#000000" opacity="1.000000" stroke="none" 
	d="
M1.000000,391.000000 
	C1.000000,260.666687 1.000000,130.833359 1.000000,1.000035 
	C342.333282,1.000023 683.666565,1.000023 1025.000000,1.000012 
	C1025.000000,342.333252 1025.000000,683.666504 1025.000000,1024.999756 
	C683.666809,1024.999878 342.333618,1024.999878 1.000206,1025.000000 
	C1.000000,813.833313 1.000000,602.666687 1.000000,391.000000 
M762.985779,587.104248 
	C763.217407,578.867126 763.449036,570.629944 763.875671,561.629456 
	C763.918579,561.105957 763.961487,560.582520 764.845825,559.748474 
	C764.836304,545.492615 764.826782,531.236694 764.947632,516.054077 
	C764.985657,498.535065 765.056213,481.015961 765.008301,463.497192 
	C765.003784,461.850067 764.253113,460.204956 763.942749,458.543152 
	C763.942749,458.543152 763.921326,458.450317 763.981201,457.429413 
	C763.981201,443.747681 763.981201,430.065948 763.981201,416.041656 
	C762.171387,416.136536 760.735046,416.211823 758.503052,416.185699 
	C752.040894,415.431091 745.578674,414.676483 738.755798,413.145447 
	C734.237610,412.768280 729.719482,412.389862 725.201111,412.014374 
	C721.174866,411.679749 717.148865,411.342499 713.121826,411.016815 
	C705.564758,410.405670 698.007080,409.802155 689.546143,409.031830 
	C675.365540,408.296082 661.184998,407.560364 646.957458,405.997986 
	C646.325439,405.653625 645.693970,405.012085 645.061340,405.010956 
	C638.741821,404.999634 632.422119,405.093811 625.167419,405.032562 
	C622.224609,405.008392 619.255615,404.726929 616.345276,405.022430 
	C612.328979,405.430267 610.473450,403.975830 610.941406,398.984497 
	C610.946899,392.393951 610.952454,385.803436 611.594666,378.880798 
	C632.020264,367.208954 651.141846,353.644409 668.038757,337.309021 
	C681.621521,324.177551 695.048584,310.716888 707.073730,296.184967 
	C721.986328,278.163696 735.318665,258.839050 749.493164,240.198700 
	C751.940125,236.980835 754.961304,234.099396 758.097961,231.526779 
	C764.932983,225.920914 772.221008,221.010086 775.208313,211.847198 
	C779.080017,199.971481 775.494629,190.007065 764.261841,185.785599 
	C759.763306,184.094986 754.960876,183.213242 750.179138,181.931808 
	C750.755188,177.432617 751.709961,172.586319 751.916382,167.708344 
	C752.179504,161.487747 748.463928,159.200546 742.282776,160.223114 
	C735.149170,161.403229 732.270996,166.304382 730.033081,172.184204 
	C724.249329,187.380508 719.222595,202.803192 709.945679,216.553635 
	C695.268494,238.308563 678.550293,258.190491 658.375000,274.913544 
	C640.628601,289.623352 620.852234,301.249695 599.384460,309.784729 
	C586.342529,314.969879 573.092102,319.400299 559.021912,321.224731 
	C552.961548,322.010498 546.992371,324.049561 541.185669,326.097382 
	C534.568481,328.431061 528.203064,331.469788 521.684631,334.093994 
	C511.756927,338.090698 502.484802,335.120361 493.445038,331.050446 
	C487.974884,328.587616 482.921173,324.048676 477.294617,323.285187 
	C454.024292,320.127502 432.211945,312.593109 411.318512,302.455566 
	C401.547913,297.714844 392.455994,291.369019 383.609772,284.984161 
	C373.552277,277.724976 363.514496,270.236450 354.566284,261.696899 
	C344.828735,252.404022 335.962799,242.108185 327.425964,231.669724 
	C317.017639,218.942932 309.097839,204.678711 303.945343,188.943390 
	C301.565125,181.674332 299.047821,174.417313 296.013000,167.405716 
	C293.537262,161.685654 284.724335,157.647690 280.126587,159.394394 
	C275.694153,161.078293 274.768890,165.046371 276.557861,173.224640 
	C277.303162,176.631760 277.563446,180.144989 278.098602,184.001343 
	C274.677734,184.001343 271.980347,183.668350 269.392639,184.059952 
	C259.117126,185.614944 254.144470,187.476273 252.124893,196.725006 
	C249.767273,207.521729 251.398911,216.804504 261.064453,223.665421 
	C265.201111,226.601730 269.450348,229.664749 272.719360,233.468597 
	C277.170654,238.648148 280.693115,244.620209 284.683289,250.202820 
	C298.991852,270.221741 313.602814,289.967926 330.342865,308.110931 
	C346.419464,325.534882 363.049957,342.333832 382.109924,356.456787 
	C392.984467,364.514496 404.608734,371.560425 415.956360,379.986938 
	C415.956360,387.520172 415.956360,395.053436 415.956360,402.367004 
	C414.433777,402.942993 413.182770,403.416260 411.095795,403.966827 
	C403.012573,404.681702 394.937653,405.513428 386.844391,406.086304 
	C371.686066,407.159271 356.495636,407.832794 341.358459,409.135742 
	C325.200043,410.526550 309.087677,412.452942 292.029144,414.023987 
	C290.228638,414.016541 288.421082,413.903625 286.629059,414.023315 
	C282.738342,414.283203 278.855560,414.661835 274.230530,415.076813 
	C271.211121,415.559113 268.191742,416.041382 265.573364,416.459625 
	C265.079071,419.382904 264.680084,421.742310 264.135315,425.012482 
	C264.140564,434.640106 264.145813,444.267700 264.012329,454.557404 
	C263.743591,455.618866 263.474884,456.680359 262.968079,458.702972 
	C263.031311,466.828735 263.094513,474.954468 263.016846,483.997925 
	C262.991669,492.004272 262.966492,500.010651 262.148346,508.380493 
	C262.072327,523.180420 261.978424,537.980286 261.969757,552.780212 
	C261.969299,553.570862 262.686798,554.361816 263.050049,556.070007 
	C263.366852,563.673889 263.543030,571.286804 264.030914,578.879700 
	C264.935516,592.956787 264.908630,607.214478 267.297119,621.046875 
	C270.784637,641.243958 275.221802,661.369812 280.804138,681.087219 
	C286.777679,702.186279 296.931671,721.559753 308.431976,740.340393 
	C317.837097,755.699524 328.615631,769.864807 341.231842,782.464355 
	C354.078918,795.294373 367.833557,807.254944 381.623322,819.092407 
	C401.542572,836.191467 423.615784,850.345764 446.007385,863.900391 
	C466.025604,876.018433 486.556122,887.289062 506.826843,898.992065 
	C511.343353,901.599609 515.288879,902.476807 520.418518,899.412781 
	C537.126282,889.432800 554.541504,880.612732 571.042419,870.317200 
	C591.269653,857.696594 611.145508,844.456177 630.598816,830.672852 
	C642.497192,822.242310 653.480103,812.479797 664.580017,802.972229 
	C679.184265,790.463074 692.729370,776.835144 704.210510,761.375000 
	C712.014160,750.867004 719.789734,740.218628 726.274475,728.887085 
	C731.839539,719.162354 735.555481,708.379517 740.606506,697.946350 
	C740.760925,697.643372 740.915344,697.340393 741.002441,697.003174 
	C741.002441,697.003174 741.051819,697.060364 741.799377,696.819885 
	C743.391541,691.880005 745.225952,687.002930 746.525024,681.987122 
	C749.144714,671.871704 751.473328,661.680786 753.993958,651.499207 
	C753.993958,651.499207 753.920044,651.485535 754.601501,650.981201 
	C755.331360,647.762695 756.061279,644.544250 756.957214,640.451660 
	C758.331299,628.672729 759.705383,616.893860 761.869202,604.732483 
	C761.902222,601.644348 761.935303,598.556274 761.956604,595.493774 
	C761.956604,595.493774 761.943176,595.518738 762.652344,594.980835 
	C762.717896,592.654663 762.783508,590.328430 762.985779,587.104248 
M506.093140,117.015411 
	C489.709290,117.056053 473.325409,117.096695 456.076263,117.013947 
	C449.410675,116.339554 442.753906,115.555984 436.077362,115.017784 
	C427.276123,114.308304 418.452087,113.880119 409.651733,113.161346 
	C403.552338,112.663177 397.476318,111.878723 390.476715,111.017601 
	C376.413330,109.414459 362.349945,107.811310 349.234222,106.316193 
	C347.899170,108.336761 346.995300,109.704765 345.983765,110.179771 
	C345.983765,108.572685 345.983765,106.965607 345.983765,105.914749 
	C337.806732,104.901321 330.096008,104.072205 322.427734,102.952484 
	C316.979523,102.156937 311.588531,100.969513 305.823944,99.183922 
	C304.573425,98.936363 303.318878,98.458954 302.073029,98.480606 
	C296.351593,98.580048 290.632599,98.818939 284.148163,99.096573 
	C270.383026,102.726631 259.121155,110.344627 249.648026,120.792755 
	C247.327621,123.351997 245.141586,126.034485 242.789551,128.563385 
	C235.463562,136.440247 228.087601,144.270630 220.224136,152.497192 
	C217.093231,155.552353 214.030746,158.681717 210.816193,161.646179 
	C205.280396,166.751236 199.649918,171.753616 193.338486,176.956009 
	C183.895126,182.047882 175.163010,188.848267 163.702225,189.098862 
	C162.816208,189.118225 161.498718,190.106049 161.156967,190.955597 
	C158.937744,196.472214 162.128922,201.053772 168.176498,200.954819 
	C171.275284,200.904114 174.418900,200.577408 177.448013,199.932678 
	C183.100540,198.729553 188.684280,197.203232 194.296631,195.811401 
	C193.034973,198.313782 191.316574,199.775070 189.526642,201.142715 
	C185.223419,204.430679 180.136383,207.075974 176.864105,211.176437 
	C175.094879,213.393448 175.729401,218.253250 176.647980,221.538116 
	C177.021317,222.873215 181.048859,223.835098 183.378769,223.767227 
	C185.211090,223.713821 187.084381,221.948608 188.774994,220.717880 
	C194.416779,216.610718 199.984558,212.401932 205.665237,208.169098 
	C206.608734,209.218170 207.355148,210.048126 208.206161,210.994370 
	C202.968155,216.663818 197.664612,221.908646 193.021072,227.684143 
	C191.264572,229.868820 189.937943,233.502014 190.460052,236.057159 
	C190.857651,238.003021 194.488312,240.564468 196.671707,240.556015 
	C199.601288,240.544662 202.867203,238.789047 205.375061,236.946854 
	C210.561737,233.136948 215.342957,228.775040 220.290909,224.640137 
	C219.878876,224.079575 219.466827,223.518997 219.054794,222.958420 
	C219.976349,223.782990 220.897903,224.607559 221.592590,225.229141 
	C216.964371,231.101181 212.452393,236.733047 208.047989,242.447815 
	C205.312759,245.996826 205.174820,252.002243 207.808121,254.302338 
	C211.482925,257.512146 214.814880,254.914612 217.339584,252.752289 
	C221.585098,249.116135 225.297028,244.835327 229.058533,240.667862 
	C230.307999,239.283539 231.019974,237.414093 231.977676,235.766449 
	C232.636795,236.341934 233.295898,236.917435 233.955017,237.492935 
	C233.405029,238.762939 232.802017,240.012939 232.314026,241.306320 
	C229.839600,247.864349 227.229126,254.377945 224.999725,261.019043 
	C223.570969,265.275116 225.935669,267.414917 230.013306,267.993530 
	C234.719711,268.661438 237.578751,267.211670 239.211319,262.162964 
	C241.652771,254.612793 245.100433,247.388000 248.789841,239.690216 
	C249.532013,237.954147 249.803360,235.461823 251.117142,234.643860 
	C253.632889,233.077576 253.497116,232.022568 251.729263,230.164566 
	C250.623352,229.002243 249.864822,227.514191 248.787888,226.318726 
	C240.746658,217.392532 239.696838,206.537369 241.434982,195.538834 
	C242.226456,190.530579 245.721619,185.949585 248.707214,181.013748 
	C252.074066,179.025482 255.294907,176.707474 258.845947,175.135193 
	C262.979340,173.305008 264.421143,170.107208 264.997406,166.056702 
	C267.476196,148.634613 282.599945,143.999847 295.253998,150.316086 
	C305.195099,155.278137 308.185547,165.748169 310.931122,175.636856 
	C311.750458,178.587738 312.923553,179.071457 315.319305,178.757187 
	C316.443085,178.609787 317.593994,177.938492 318.646210,178.093033 
	C326.768127,179.285812 334.844421,180.821701 342.987518,181.822952 
	C346.545685,182.260452 350.481079,182.378159 353.702087,181.180496 
	C354.704071,180.807968 353.924530,175.639648 353.953308,172.666748 
	C353.954895,172.504318 353.889313,172.341232 354.083221,171.425430 
	C354.722107,173.875290 355.057587,176.465057 356.101196,178.728256 
	C356.860413,180.374710 358.446930,182.683075 359.850098,182.821945 
	C369.910187,183.817642 380.021484,184.283875 390.108246,185.030090 
	C393.285400,185.265121 396.091980,184.962570 398.006866,182.741226 
	C399.172638,183.815582 400.246979,185.692932 401.518555,185.837723 
	C411.997437,187.030884 422.512909,187.902542 433.941345,189.018433 
	C439.304169,189.338593 444.667755,189.922180 450.029663,189.907318 
	C455.781189,189.891388 461.531158,189.312729 468.011597,189.007965 
	C470.206116,187.984482 472.556549,187.201706 474.569427,185.897827 
	C486.281036,178.311371 499.275940,174.306290 513.012634,174.232605 
	C526.777832,174.158768 539.706726,178.149551 551.501770,185.782272 
	C555.470581,188.350525 560.482727,190.697388 565.029297,190.718491 
	C578.132263,190.779343 591.241577,189.614319 604.346375,188.893707 
	C605.646790,188.822205 606.932190,188.488602 608.226501,188.289703 
	C613.058289,187.547226 617.901672,186.161240 622.720337,186.241318 
	C628.295471,186.334000 629.833069,185.440384 630.033630,179.733276 
	C630.230164,174.138794 630.700989,168.553925 631.785400,163.292542 
	C631.523376,169.139587 631.279602,174.987518 630.992981,180.833359 
	C630.805054,184.665573 632.688660,186.305847 636.391968,185.993103 
	C644.013977,185.349426 651.682739,185.002792 659.235474,183.881714 
	C664.568848,183.090057 669.742920,181.225540 675.909851,179.968964 
	C683.275940,179.941437 690.643494,179.988983 698.007080,179.838806 
	C700.108948,179.795929 702.191895,179.126266 704.296936,178.843750 
	C705.858032,178.634201 707.505249,178.243866 709.002747,178.525665 
	C715.160706,179.684509 717.376831,178.066055 719.137817,171.815613 
	C720.334534,167.567902 721.924805,163.340271 723.984985,159.445251 
	C728.480835,150.945023 735.704224,147.491074 743.862732,147.872955 
	C757.428894,148.507965 762.285217,157.218552 764.052490,168.956284 
	C764.318176,170.720718 765.217712,173.012299 766.576355,173.874008 
	C770.821045,176.566299 775.426270,178.690216 780.180847,181.698196 
	C780.816223,182.979477 781.367065,184.311371 782.099854,185.534302 
	C790.253296,199.141296 789.470337,212.260254 780.003967,224.918808 
	C777.922913,227.701523 775.807983,230.458908 773.921875,232.946716 
	C776.619385,234.925415 778.881592,236.584808 780.958130,239.012878 
	C784.226807,248.175629 787.130188,257.501221 791.079285,266.360657 
	C791.848328,268.085907 797.136658,269.232147 799.503601,268.364014 
	C801.463806,267.645081 803.018738,263.627075 803.223999,260.953339 
	C803.417114,258.437805 801.644226,255.755936 800.675598,253.170013 
	C799.003723,248.706741 797.284790,244.261063 795.585571,239.808029 
	C795.971924,239.584732 796.358337,239.361450 796.744690,239.138153 
	C801.630920,244.078125 806.497314,249.037949 811.410583,253.950882 
	C814.509216,257.049347 817.814575,256.032990 820.631958,253.762024 
	C823.452881,251.488235 822.678101,248.801056 820.695312,246.078323 
	C816.778198,240.699493 812.937195,235.251663 809.386108,229.629364 
	C808.497986,228.223236 808.831116,226.045746 808.602966,224.222778 
	C809.309937,223.956421 810.016968,223.690079 810.723938,223.423721 
	C814.678101,227.661377 818.833374,231.732132 822.528992,236.184433 
	C826.109192,240.497864 830.402344,240.757492 834.905457,238.780136 
	C836.229553,238.198746 837.618835,235.443359 837.326904,234.023987 
	C836.832703,231.621475 835.382935,229.163101 833.696960,227.307999 
	C829.515503,222.707047 824.851562,218.544174 820.679504,213.935486 
	C819.843567,213.012054 820.329712,210.891739 820.206299,209.323288 
	C821.594299,209.508530 823.261230,209.262451 824.324280,209.950089 
	C830.509033,213.950439 836.573364,218.139114 842.634277,222.327927 
	C845.997192,224.652115 849.526489,224.444580 851.741882,221.396301 
	C854.055481,218.212799 854.957092,214.157959 851.316589,210.860992 
	C849.021912,208.782852 846.611267,206.812103 844.113098,204.983765 
	C839.821533,201.842834 835.420898,198.850876 831.066040,195.796387 
	C831.306519,195.305023 831.546997,194.813660 831.787415,194.322296 
	C834.835815,195.049728 837.901978,195.710495 840.928894,196.518356 
	C847.478027,198.266220 853.114624,202.808548 860.524902,202.122650 
	C865.075867,201.701416 867.023254,199.157013 867.879150,195.471893 
	C868.623169,192.268692 865.136169,188.626175 861.391907,188.012909 
	C859.631104,187.724503 857.735779,187.704742 856.148315,187.004028 
	C848.707336,183.719635 841.352356,180.240738 833.660889,176.242355 
	C830.283447,173.502701 826.787170,170.895523 823.554810,167.994217 
	C817.859436,162.882095 812.494873,157.344864 805.112854,154.445526 
	C804.602783,152.626083 804.615051,150.349915 803.492371,149.066254 
	C798.622314,143.497604 793.342102,138.290451 788.363586,132.813126 
	C783.750427,127.737831 779.216736,122.580688 774.850708,117.292290 
	C766.179260,106.788925 755.280579,100.770683 740.694397,100.131020 
	C733.573547,100.071754 726.452209,99.944405 719.332275,100.000122 
	C717.505859,100.014420 715.684021,100.606400 713.089050,101.022125 
	C709.359192,101.733383 705.629272,102.444649 701.022095,103.040375 
	C696.904846,103.369949 692.763916,103.529137 688.679443,104.095108 
	C686.351624,104.417656 684.115906,105.404198 681.241760,106.058861 
	C680.581848,106.452286 679.921936,106.845711 678.458862,106.941315 
	C676.171082,106.960663 673.866272,106.806709 671.598511,107.029526 
	C662.034729,107.969170 652.458130,108.843544 642.937195,110.121170 
	C639.230286,110.618607 635.657776,112.117599 631.158813,113.012268 
	C619.052124,114.002960 606.955505,115.147293 594.835999,115.942436 
	C581.929688,116.789185 569.001709,117.305504 555.596008,117.239754 
	C539.404358,117.218178 523.212708,117.196602 506.093140,117.015411 
M457.302429,260.748047 
	C459.564941,272.771637 464.634430,283.609222 473.544525,291.875458 
	C486.172974,303.591278 501.275238,308.545471 518.843445,307.180176 
	C544.997375,305.147614 565.301392,285.796783 569.699524,259.857697 
	C570.058289,257.056671 570.751892,254.250244 570.706604,251.455750 
	C570.610657,245.521606 572.139465,239.391800 568.991882,233.028870 
	C565.730530,226.258255 563.385742,218.818588 559.027710,212.848541 
	C548.063538,197.828644 531.895203,191.924606 514.034058,190.182388 
	C504.975739,189.298813 496.672211,192.301926 488.408875,195.912949 
	C469.823425,204.034637 460.926544,219.085175 456.179626,238.331284 
	C456.497040,245.551331 456.814453,252.771378 457.302429,260.748047 
M222.000015,510.504211 
	C222.333267,525.588745 222.670776,540.673096 222.998611,555.757751 
	C223.337326,571.343994 223.505188,586.936218 224.069763,602.514160 
	C224.342163,610.030212 224.720917,617.643188 226.158554,624.995850 
	C229.405838,641.603821 233.094604,658.136536 237.052841,674.591919 
	C243.651947,702.026062 255.360046,727.455017 269.448486,751.695312 
	C283.597382,776.039551 301.699463,797.588318 321.415710,817.522095 
	C333.329956,829.567810 346.980713,839.949097 360.232880,850.603516 
	C373.636719,861.379700 387.216705,871.985474 401.238068,881.935120 
	C435.247986,906.068542 472.073486,925.381531 509.471008,943.606445 
	C511.963867,944.821228 516.065186,944.769226 518.575439,943.558655 
	C528.861206,938.598572 538.957825,933.200989 548.870605,927.522034 
	C569.264893,915.838440 589.576782,904.005981 609.776611,891.989319 
	C640.626648,873.636719 669.270447,852.231995 695.009949,827.239563 
	C709.689819,812.985718 723.984619,798.135071 736.801514,782.223022 
	C747.986023,768.337524 757.721863,753.078430 766.527405,737.536560 
	C777.070435,718.927856 784.088928,698.683716 790.131042,678.105774 
	C795.319946,660.433228 797.654602,642.324768 799.941162,624.184143 
	C801.270447,613.638123 802.078796,603.023743 802.999084,592.429443 
	C804.389282,576.425476 805.992432,560.429565 806.866577,544.395447 
	C807.305176,536.350891 806.243530,528.231995 806.019897,520.142273 
	C805.616699,505.557800 805.277893,490.971039 805.022949,476.383270 
	C804.891968,468.885864 805.084167,461.383179 804.984070,453.884827 
	C804.695923,432.298126 804.217224,410.712982 804.116089,389.125793 
	C804.099609,385.592346 802.124695,385.015839 799.791504,384.389801 
	C783.018372,379.889618 766.315491,375.081635 749.417664,371.104736 
	C730.574646,366.670013 711.572510,362.893463 692.584534,359.106873 
	C688.521790,358.296661 683.246887,357.035400 680.227966,358.832947 
	C673.203247,363.015869 667.213013,368.936066 660.265869,374.589905 
	C662.743469,375.253632 664.120117,375.712555 665.532593,375.986633 
	C677.110779,378.233185 688.708069,380.382935 700.275208,382.684265 
	C713.890076,385.392975 727.517212,388.058197 741.070984,391.050507 
	C753.640625,393.825562 766.169250,396.826721 778.593140,400.182861 
	C780.711609,400.755127 783.644592,403.515656 783.773621,405.428864 
	C784.839355,421.241669 785.873962,437.092560 785.888367,452.932831 
	C785.919250,486.851379 785.382324,520.771118 784.965942,554.688965 
	C784.860535,563.278198 784.628479,571.886169 783.932312,580.443054 
	C782.858948,593.635803 781.671509,606.836975 779.911987,619.951355 
	C777.973206,634.401611 776.049683,648.919128 772.852722,663.122192 
	C765.764709,694.611572 753.694763,724.197144 735.403259,750.908447 
	C727.796204,762.017029 719.582275,772.869812 710.457886,782.742310 
	C696.529236,797.812805 682.112366,812.532349 666.877258,826.262939 
	C654.854980,837.098022 641.701172,846.824890 628.309814,855.958984 
	C608.481873,869.483398 588.193542,882.365356 567.724976,894.906860 
	C554.278381,903.145935 540.105408,910.191345 526.380859,917.988037 
	C518.486145,922.472900 510.840759,925.048096 503.019958,918.028381 
	C502.447693,917.514771 501.567200,917.357666 500.858459,916.981262 
	C485.787781,908.977844 470.352600,901.581726 455.735413,892.820984 
	C430.250824,877.546997 404.679169,862.302002 381.707153,843.249268 
	C369.126617,832.815125 356.448090,822.477966 344.274780,811.582092 
	C337.264954,805.307800 330.796326,798.322449 324.754669,791.096497 
	C314.217072,778.493286 303.613892,765.872498 294.097198,752.505127 
	C279.744415,732.344910 268.769043,710.284180 261.905792,686.436951 
	C257.150726,669.914917 252.885941,653.227234 249.147308,636.447510 
	C247.242691,627.899170 246.907303,618.992554 245.993805,610.234192 
	C244.602707,596.896851 242.773285,583.573303 242.150284,570.196411 
	C241.484024,555.890625 241.880905,541.528564 242.029221,527.193237 
	C242.255997,505.272675 242.644333,483.353668 243.008072,461.434753 
	C243.305435,443.515320 243.690292,425.597260 243.983154,407.677765 
	C244.053055,403.400360 245.849350,400.893921 250.218124,399.954712 
	C266.763977,396.397583 283.256714,392.593597 299.800201,389.025208 
	C312.735901,386.235077 325.739655,383.759766 338.670776,380.949463 
	C347.835663,378.957672 356.929779,376.640381 366.376129,374.392059 
	C360.628662,369.165253 355.462494,364.176392 349.940582,359.618469 
	C348.233063,358.209106 345.381622,356.999512 343.354797,357.365356 
	C333.854004,359.080261 324.428558,361.252686 315.032898,363.498932 
	C305.178680,365.854767 295.401428,368.530640 285.568359,370.977509 
	C266.675018,375.678925 247.778748,380.370209 228.850952,384.929871 
	C225.696625,385.689758 224.144470,387.236694 223.980652,390.466858 
	C223.363083,402.642761 222.463089,414.807770 222.049988,426.989777 
	C221.510345,442.902435 221.117523,458.826721 221.071045,474.747223 
	C221.037216,486.332672 221.666428,497.920013 222.000015,510.504211 
z"/>
<path fill="#D73027" opacity="1.000000" stroke="none" 
	d="
M647.004395,406.824646 
	C661.184998,407.560364 675.365540,408.296082 690.287476,409.318573 
	C696.248840,410.237854 701.455627,411.026794 706.691650,411.470276 
	C717.491699,412.385010 728.307312,413.115540 739.116516,413.921875 
	C745.578674,414.676483 752.040894,415.431091 759.143921,416.459015 
	C763.798462,419.660706 761.843140,423.966064 762.126343,427.653290 
	C762.913574,437.904449 763.347717,448.182739 763.921326,458.450317 
	C763.921326,458.450317 763.942749,458.543152 763.765991,458.858948 
	C763.544556,459.392456 763.500000,459.610168 763.293457,460.173401 
	C763.176453,462.057343 763.221252,463.595734 763.294189,465.374634 
	C763.322327,465.615204 763.446838,466.083313 763.328613,466.522491 
	C763.406372,471.104248 763.602356,475.246857 763.725952,479.829407 
	C763.813354,492.501190 763.973145,504.732971 764.041565,517.389893 
	C763.968262,531.896362 763.986328,545.977661 764.004395,560.059021 
	C763.961487,560.582520 763.918579,561.105957 763.512329,561.871948 
	C762.990173,562.065247 762.823975,561.962646 762.674927,561.983337 
	C762.552185,562.000366 762.356018,562.159973 762.351807,562.262756 
	C762.004578,570.849060 761.672913,579.436096 761.251587,588.441833 
	C761.423035,591.080017 761.683105,593.299377 761.943176,595.518738 
	C761.943176,595.518738 761.956604,595.493774 761.624023,595.791077 
	C761.220825,599.097229 761.150146,602.106079 761.079529,605.114929 
	C759.705383,616.893860 758.331299,628.672729 756.528442,640.943665 
	C755.373108,644.785645 754.646606,648.135559 753.920044,651.485535 
	C753.920044,651.485535 753.993958,651.499207 753.666992,651.789612 
	C750.528625,662.211792 747.698486,672.338379 744.913757,682.477478 
	C743.582031,687.326294 742.336426,692.198669 741.051819,697.060364 
	C741.051819,697.060364 741.002441,697.003174 740.729797,696.973755 
	C740.334473,697.317688 740.211853,697.691162 740.089172,698.064575 
	C735.555481,708.379517 731.839539,719.162354 726.274475,728.887085 
	C719.789734,740.218628 712.014160,750.867004 704.210510,761.375000 
	C692.729370,776.835144 679.184265,790.463074 664.580017,802.972229 
	C653.480103,812.479797 642.497192,822.242310 630.598816,830.672852 
	C611.145508,844.456177 591.269653,857.696594 571.042419,870.317200 
	C554.541504,880.612732 537.126282,889.432800 520.418518,899.412781 
	C515.288879,902.476807 511.343353,901.599609 506.826843,898.992065 
	C486.556122,887.289062 466.025604,876.018433 446.007385,863.900391 
	C423.615784,850.345764 401.542572,836.191467 381.623322,819.092407 
	C367.833557,807.254944 354.078918,795.294373 341.231842,782.464355 
	C328.615631,769.864807 317.837097,755.699524 308.431976,740.340393 
	C296.931671,721.559753 286.777679,702.186279 280.804138,681.087219 
	C275.221802,661.369812 270.784637,641.243958 267.297119,621.046875 
	C264.908630,607.214478 264.935516,592.956787 264.030914,578.879700 
	C263.543030,571.286804 263.366852,563.673889 263.120483,555.135132 
	C263.107697,538.805847 263.024506,523.411438 262.941345,508.016998 
	C262.966492,500.010651 262.991669,492.004272 263.395630,483.298218 
	C264.093658,475.080627 264.458801,467.563965 264.661255,460.042999 
	C264.681549,459.289520 263.714844,458.509491 263.206177,457.741821 
	C263.474884,456.680359 263.743591,455.618866 264.458496,454.137543 
	C265.225067,453.180359 265.819794,452.645508 265.824677,452.105316 
	C265.900879,443.659058 265.950012,435.211548 265.846588,426.766266 
	C265.835632,425.871826 264.826904,424.989594 264.281128,424.101715 
	C264.680084,421.742310 265.079071,419.382904 265.573364,416.459625 
	C268.191742,416.041382 271.211121,415.559113 275.013611,415.082031 
	C281.516235,414.773376 287.235718,414.459442 292.955231,414.145538 
	C309.087677,412.452942 325.200043,410.526550 341.358459,409.135742 
	C356.495636,407.832794 371.686066,407.159271 386.844391,406.086304 
	C394.937653,405.513428 403.012573,404.681702 411.940552,404.009583 
	C414.204956,403.212219 416.787415,402.459747 416.858337,401.518066 
	C417.375946,394.647919 417.430359,387.740112 417.486969,380.843018 
	C417.491791,380.253723 416.450653,379.655853 415.895386,379.061951 
	C404.608734,371.560425 392.984467,364.514496 382.109924,356.456787 
	C363.049957,342.333832 346.419464,325.534882 330.342865,308.110931 
	C313.602814,289.967926 298.991852,270.221741 284.683289,250.202820 
	C280.693115,244.620209 277.170654,238.648148 272.719360,233.468597 
	C269.450348,229.664749 265.201111,226.601730 261.064453,223.665421 
	C251.398911,216.804504 249.767273,207.521729 252.124893,196.725006 
	C254.144470,187.476273 259.117126,185.614944 269.392639,184.059952 
	C271.980347,183.668350 274.677734,184.001343 278.098602,184.001343 
	C277.563446,180.144989 277.303162,176.631760 276.557861,173.224640 
	C274.768890,165.046371 275.694153,161.078293 280.126587,159.394394 
	C284.724335,157.647690 293.537262,161.685654 296.013000,167.405716 
	C299.047821,174.417313 301.565125,181.674332 303.945343,188.943390 
	C309.097839,204.678711 317.017639,218.942932 327.425964,231.669724 
	C335.962799,242.108185 344.828735,252.404022 354.566284,261.696899 
	C363.514496,270.236450 373.552277,277.724976 383.609772,284.984161 
	C392.455994,291.369019 401.547913,297.714844 411.318512,302.455566 
	C432.211945,312.593109 454.024292,320.127502 477.294617,323.285187 
	C482.921173,324.048676 487.974884,328.587616 493.445038,331.050446 
	C502.484802,335.120361 511.756927,338.090698 521.684631,334.093994 
	C528.203064,331.469788 534.568481,328.431061 541.185669,326.097382 
	C546.992371,324.049561 552.961548,322.010498 559.021912,321.224731 
	C573.092102,319.400299 586.342529,314.969879 599.384460,309.784729 
	C620.852234,301.249695 640.628601,289.623352 658.375000,274.913544 
	C678.550293,258.190491 695.268494,238.308563 709.945679,216.553635 
	C719.222595,202.803192 724.249329,187.380508 730.033081,172.184204 
	C732.270996,166.304382 735.149170,161.403229 742.282776,160.223114 
	C748.463928,159.200546 752.179504,161.487747 751.916382,167.708344 
	C751.709961,172.586319 750.755188,177.432617 750.179138,181.931808 
	C754.960876,183.213242 759.763306,184.094986 764.261841,185.785599 
	C775.494629,190.007065 779.080017,199.971481 775.208313,211.847198 
	C772.221008,221.010086 764.932983,225.920914 758.097961,231.526779 
	C754.961304,234.099396 751.940125,236.980835 749.493164,240.198700 
	C735.318665,258.839050 721.986328,278.163696 707.073730,296.184967 
	C695.048584,310.716888 681.621521,324.177551 668.038757,337.309021 
	C651.141846,353.644409 632.020264,367.208954 610.880493,379.078003 
	C609.638184,386.472748 609.110046,393.670258 608.488464,402.139709 
	C610.130981,400.576660 610.487549,400.237305 610.844116,399.897949 
	C610.473450,403.975830 612.328979,405.430267 616.345276,405.022430 
	C619.255615,404.726929 622.224609,405.008392 625.721680,405.475281 
	C627.783813,406.280090 629.287781,406.931702 630.800354,406.952209 
	C636.200134,407.025543 641.602783,406.884552 647.004395,406.824646 
M394.285126,708.176147 
	C393.648499,724.016724 394.234680,739.767944 397.645264,755.322388 
	C407.074921,798.327698 436.857758,822.949463 474.751007,839.806152 
	C483.293854,843.606323 492.853455,845.120911 501.189667,847.474426 
	C501.965698,847.052795 501.482666,847.315247 500.999634,847.577698 
	C505.560638,846.801819 510.179932,847.010437 514.772949,846.751587 
	C521.222046,846.388245 527.690002,845.953613 534.082642,845.065308 
	C555.681213,842.064087 574.295044,832.068176 590.492310,818.215881 
	C617.019348,795.529175 632.804688,767.102417 632.806458,731.223816 
	C632.806702,725.104980 634.180176,718.872253 633.408875,712.886841 
	C629.873779,685.453857 619.499512,661.056641 599.792480,641.116211 
	C579.907898,620.996033 555.776428,608.837036 527.851746,605.816650 
	C515.852844,604.518799 503.265167,606.223694 491.225616,608.239929 
	C464.478088,612.719360 441.745178,625.264587 423.675507,645.644531 
	C414.175995,656.358582 406.626160,668.376770 401.377533,682.459045 
	C398.949341,690.736206 396.521179,699.013428 394.285126,708.176147 
M709.632263,433.274475 
	C713.003296,433.088867 716.374329,432.903259 719.745361,432.717651 
	C713.170898,431.920135 706.621155,431.220062 700.059143,431.076263 
	C695.709900,430.980988 691.343262,431.682617 686.259521,432.111603 
	C685.530090,432.122864 684.800720,432.134094 683.495667,432.084076 
	C683.379028,432.412079 683.262390,432.740051 683.067871,433.818359 
	C671.389587,467.047607 659.711304,500.276825 648.046631,533.467224 
	C637.679932,499.659668 627.317383,465.865692 617.526489,431.739716 
	C616.892578,430.586090 616.258667,429.432465 615.282471,427.964539 
	C614.863647,427.803894 614.444763,427.643219 613.761841,426.774689 
	C605.556824,426.314575 597.351807,425.854462 588.244263,425.718262 
	C583.622437,425.718262 579.000610,425.718262 573.894470,425.718262 
	C574.636902,427.992157 575.118896,429.554016 575.654724,431.097137 
	C585.716248,460.073273 595.792969,489.044128 605.847473,518.022705 
	C612.101746,536.048340 618.268250,554.104919 624.662781,572.080505 
	C625.198059,573.585205 627.112610,575.570923 628.486633,575.653015 
	C640.104004,576.346619 651.745239,576.637268 663.378296,577.075684 
	C667.711182,577.238953 670.277344,575.494019 671.850403,571.180054 
	C676.715759,557.837524 681.871643,544.596924 687.131287,531.403015 
	C698.746887,502.265320 710.511963,473.187195 722.162842,444.063477 
	C723.359192,441.072998 724.195251,437.938385 725.227966,434.780579 
	C719.396606,434.464630 714.265381,434.186615 709.632263,433.274475 
M654.452576,703.573608 
	C654.312012,715.329102 654.143372,727.084534 654.092773,738.840393 
	C654.089294,739.646362 654.969727,740.456116 655.471375,742.007263 
	C653.731262,751.914917 651.991089,761.822510 650.009033,773.107544 
	C659.962097,763.322144 669.247437,755.189270 677.341736,746.006592 
	C690.130493,731.498413 699.744690,714.841064 707.661621,697.183838 
	C714.021851,682.998657 719.704651,668.596375 722.567261,653.262085 
	C725.326172,638.483154 730.048218,624.037720 729.337769,608.645813 
	C729.155457,604.694153 727.339478,604.647400 724.910767,604.447327 
	C711.855042,603.372253 698.795410,602.336548 685.729065,601.399231 
	C670.361328,600.296753 654.997620,599.027100 639.609192,598.358582 
	C626.806946,597.802368 613.971680,597.996826 601.150757,597.887756 
	C596.108521,597.844910 591.065613,597.880737 586.023010,597.880737 
	C622.879333,624.118652 646.992798,658.216675 654.452576,703.573608 
M319.836334,581.029785 
	C329.443878,581.029785 339.051422,581.029785 349.699829,581.029785 
	C348.177246,579.326904 347.658691,578.746948 347.993103,578.034790 
	C348.990265,577.995239 349.996155,577.851562 350.983124,577.934021 
	C355.262970,578.291504 356.345062,576.893372 356.111664,572.237183 
	C355.508698,560.208191 355.909668,548.128906 355.909668,536.069702 
	C356.141266,536.065430 356.372833,536.061096 356.604431,536.056824 
	C356.850922,539.527832 357.097412,542.998840 357.343903,546.469788 
	C357.412598,546.464355 357.481323,546.458862 357.550049,546.453369 
	C357.734314,542.371399 357.918579,538.289368 358.085785,534.585266 
	C367.785004,533.664307 376.890015,533.033264 385.928192,531.879089 
	C395.933746,530.601196 406.053253,529.469910 415.001404,524.142151 
	C422.289520,519.802734 428.649048,514.462891 433.670715,506.760101 
	C435.278717,502.829163 437.434753,499.025421 438.382690,494.941315 
	C440.470154,485.947266 441.764038,476.815887 437.662964,467.166107 
	C430.017334,440.455536 414.536133,429.479187 387.011383,430.746033 
	C370.589539,431.501892 354.138000,431.594025 337.709869,432.240326 
	C330.500763,432.523895 323.316772,433.445587 315.898041,434.097137 
	C315.898041,482.267365 315.875488,529.714783 316.023956,577.161743 
	C316.027771,578.384644 317.903809,579.601746 319.836334,581.029785 
M400.027893,637.561523 
	C411.607941,622.306213 426.157471,610.264893 441.693176,599.265808 
	C436.073486,594.438232 314.039795,601.677917 297.458435,607.762695 
	C298.501709,639.411865 306.996307,669.282471 320.663116,697.593445 
	C334.377625,726.003235 351.944855,751.725708 377.412659,771.259155 
	C376.734100,763.107971 375.348022,755.285889 374.385925,747.411987 
	C373.156891,737.353577 371.090454,727.210022 371.458618,717.179260 
	C372.528564,688.026428 382.381378,661.693787 400.027893,637.561523 
M450.973785,560.570190 
	C461.524048,566.104980 471.856293,571.759705 483.992432,573.825317 
	C497.809509,576.176880 511.602814,577.966797 525.382507,575.519165 
	C535.515015,573.719360 545.082520,569.672363 553.209167,562.864502 
	C560.846985,556.466125 564.635986,547.469299 565.857239,538.464600 
	C566.915649,530.661072 564.644226,522.144348 562.567139,514.280212 
	C561.410339,509.900116 558.485291,505.040405 554.881409,502.449280 
	C547.244446,496.958344 538.888184,492.289368 530.367737,488.252411 
	C520.648071,483.647217 510.441315,480.064728 500.421234,476.101013 
	C495.640228,474.209808 493.375366,470.569183 493.419983,465.659210 
	C493.464874,460.715088 496.954895,458.539917 501.187134,457.130432 
	C511.161774,453.808594 521.083862,453.891388 530.997375,457.351532 
	C537.163574,459.503723 543.335938,461.638306 549.608215,463.816406 
	C553.968933,453.682892 558.078796,444.132355 562.692871,433.410095 
	C549.026001,429.918915 536.114380,425.390533 522.831482,423.567657 
	C509.085724,421.681244 494.988586,422.202026 481.628845,427.645233 
	C465.032318,434.407227 453.693695,450.272461 454.178070,467.436493 
	C454.709412,486.265808 465.029022,498.868195 481.544189,506.339172 
	C492.394928,511.247742 503.938385,514.604370 514.969238,519.147522 
	C518.485596,520.595764 522.022461,523.089783 524.369507,526.043335 
	C528.665222,531.449158 526.383545,538.061829 520.359253,541.431702 
	C514.406860,544.761353 508.118561,545.026733 501.991394,543.383545 
	C490.366760,540.265991 478.959717,536.343872 467.401917,532.962341 
	C465.850189,532.508301 462.789124,532.692200 462.386993,533.526001 
	C458.173615,542.262024 454.359985,551.190918 450.973785,560.570190 
M379.550781,429.016815 
	C383.965210,429.016815 388.379639,429.016815 392.794067,429.016815 
	C392.780060,428.762207 392.766052,428.507599 392.752014,428.252991 
	C385.233795,428.252991 377.715546,428.252991 370.197327,428.252991 
	C370.193146,428.507599 370.188934,428.762177 370.184753,429.016785 
	C372.984039,429.016785 375.783356,429.016785 379.550781,429.016815 
z"/>
<path fill="#F7F4E9" opacity="1.000000" stroke="none" 
	d="
M222.000015,510.005371 
	C221.666428,497.920013 221.037216,486.332672 221.071045,474.747223 
	C221.117523,458.826721 221.510345,442.902435 222.049988,426.989777 
	C222.463089,414.807770 223.363083,402.642761 223.980652,390.466858 
	C224.144470,387.236694 225.696625,385.689758 228.850952,384.929871 
	C247.778748,380.370209 266.675018,375.678925 285.568359,370.977509 
	C295.401428,368.530640 305.178680,365.854767 315.032898,363.498932 
	C324.428558,361.252686 333.854004,359.080261 343.354797,357.365356 
	C345.381622,356.999512 348.233063,358.209106 349.940582,359.618469 
	C355.462494,364.176392 360.628662,369.165253 366.376129,374.392059 
	C356.929779,376.640381 347.835663,378.957672 338.670776,380.949463 
	C325.739655,383.759766 312.735901,386.235077 299.800201,389.025208 
	C283.256714,392.593597 266.763977,396.397583 250.218124,399.954712 
	C245.849350,400.893921 244.053055,403.400360 243.983154,407.677765 
	C243.690292,425.597260 243.305435,443.515320 243.008072,461.434753 
	C242.644333,483.353668 242.255997,505.272675 242.029221,527.193237 
	C241.880905,541.528564 241.484024,555.890625 242.150284,570.196411 
	C242.773285,583.573303 244.602707,596.896851 245.993805,610.234192 
	C246.907303,618.992554 247.242691,627.899170 249.147308,636.447510 
	C252.885941,653.227234 257.150726,669.914917 261.905792,686.436951 
	C268.769043,710.284180 279.744415,732.344910 294.097198,752.505127 
	C303.613892,765.872498 314.217072,778.493286 324.754669,791.096497 
	C330.796326,798.322449 337.264954,805.307800 344.274780,811.582092 
	C356.448090,822.477966 369.126617,832.815125 381.707153,843.249268 
	C404.679169,862.302002 430.250824,877.546997 455.735413,892.820984 
	C470.352600,901.581726 485.787781,908.977844 500.858459,916.981262 
	C501.567200,917.357666 502.447693,917.514771 503.019958,918.028381 
	C510.840759,925.048096 518.486145,922.472900 526.380859,917.988037 
	C540.105408,910.191345 554.278381,903.145935 567.724976,894.906860 
	C588.193542,882.365356 608.481873,869.483398 628.309814,855.958984 
	C641.701172,846.824890 654.854980,837.098022 666.877258,826.262939 
	C682.112366,812.532349 696.529236,797.812805 710.457886,782.742310 
	C719.582275,772.869812 727.796204,762.017029 735.403259,750.908447 
	C753.694763,724.197144 765.764709,694.611572 772.852722,663.122192 
	C776.049683,648.919128 777.973206,634.401611 779.911987,619.951355 
	C781.671509,606.836975 782.858948,593.635803 783.932312,580.443054 
	C784.628479,571.886169 784.860535,563.278198 784.965942,554.688965 
	C785.382324,520.771118 785.919250,486.851379 785.888367,452.932831 
	C785.873962,437.092560 784.839355,421.241669 783.773621,405.428864 
	C783.644592,403.515656 780.711609,400.755127 778.593140,400.182861 
	C766.169250,396.826721 753.640625,393.825562 741.070984,391.050507 
	C727.517212,388.058197 713.890076,385.392975 700.275208,382.684265 
	C688.708069,380.382935 677.110779,378.233185 665.532593,375.986633 
	C664.120117,375.712555 662.743469,375.253632 660.265869,374.589905 
	C667.213013,368.936066 673.203247,363.015869 680.227966,358.832947 
	C683.246887,357.035400 688.521790,358.296661 692.584534,359.106873 
	C711.572510,362.893463 730.574646,366.670013 749.417664,371.104736 
	C766.315491,375.081635 783.018372,379.889618 799.791504,384.389801 
	C802.124695,385.015839 804.099609,385.592346 804.116089,389.125793 
	C804.217224,410.712982 804.695923,432.298126 804.984070,453.884827 
	C805.084167,461.383179 804.891968,468.885864 805.022949,476.383270 
	C805.277893,490.971039 805.616699,505.557800 806.019897,520.142273 
	C806.243530,528.231995 807.305176,536.350891 806.866577,544.395447 
	C805.992432,560.429565 804.389282,576.425476 802.999084,592.429443 
	C802.078796,603.023743 801.270447,613.638123 799.941162,624.184143 
	C797.654602,642.324768 795.319946,660.433228 790.131042,678.105774 
	C784.088928,698.683716 777.070435,718.927856 766.527405,737.536560 
	C757.721863,753.078430 747.986023,768.337524 736.801514,782.223022 
	C723.984619,798.135071 709.689819,812.985718 695.009949,827.239563 
	C669.270447,852.231995 640.626648,873.636719 609.776611,891.989319 
	C589.576782,904.005981 569.264893,915.838440 548.870605,927.522034 
	C538.957825,933.200989 528.861206,938.598572 518.575439,943.558655 
	C516.065186,944.769226 511.963867,944.821228 509.471008,943.606445 
	C472.073486,925.381531 435.247986,906.068542 401.238068,881.935120 
	C387.216705,871.985474 373.636719,861.379700 360.232880,850.603516 
	C346.980713,839.949097 333.329956,829.567810 321.415710,817.522095 
	C301.699463,797.588318 283.597382,776.039551 269.448486,751.695312 
	C255.360046,727.455017 243.651947,702.026062 237.052841,674.591919 
	C233.094604,658.136536 229.405838,641.603821 226.158554,624.995850 
	C224.720917,617.643188 224.342163,610.030212 224.069763,602.514160 
	C223.505188,586.936218 223.337326,571.343994 222.998611,555.757751 
	C222.670776,540.673096 222.333267,525.588745 222.000015,510.005371 
z"/>
<path fill="#D73027" opacity="1.000000" stroke="none" 
	d="
M556.083191,117.966095 
	C569.001709,117.305504 581.929688,116.789185 594.835999,115.942436 
	C606.955505,115.147293 619.052124,114.002960 631.796021,113.420395 
	C632.962952,115.501335 634.032227,117.205177 633.938110,118.842110 
	C633.092102,133.556366 632.041748,148.258881 631.051514,162.964844 
	C630.700989,168.553925 630.230164,174.138794 630.033630,179.733276 
	C629.833069,185.440384 628.295471,186.334000 622.720337,186.241318 
	C617.901672,186.161240 613.058289,187.547226 608.226501,188.289703 
	C606.932190,188.488602 605.646790,188.822205 604.346375,188.893707 
	C591.241577,189.614319 578.132263,190.779343 565.029297,190.718491 
	C560.482727,190.697388 555.470581,188.350525 551.501770,185.782272 
	C539.706726,178.149551 526.777832,174.158768 513.012634,174.232605 
	C499.275940,174.306290 486.281036,178.311371 474.569427,185.897827 
	C472.556549,187.201706 470.206116,187.984482 467.213409,188.925537 
	C457.993317,188.566498 449.572876,188.200577 441.148712,188.064911 
	C438.443268,188.021347 435.728058,188.585526 433.017303,188.871658 
	C422.512909,187.902542 411.997437,187.030884 401.518555,185.837723 
	C400.246979,185.692932 399.172638,183.815582 397.942444,181.920441 
	C397.569397,178.982376 397.134247,176.874680 396.973175,174.746216 
	C396.075775,162.885590 395.369751,151.009186 394.351257,139.159424 
	C393.549438,129.831085 392.390289,120.533455 391.389893,111.222191 
	C397.476318,111.878723 403.552338,112.663177 409.651733,113.161346 
	C418.452087,113.880119 427.276123,114.308304 436.077362,115.017784 
	C442.753906,115.555984 449.410675,116.339554 456.800018,117.378616 
	C466.297607,117.860619 475.071442,117.977966 484.204041,118.317581 
	C505.718628,118.636269 526.874512,118.732689 548.454956,118.892113 
	C551.280762,118.625443 553.681946,118.295769 556.083191,117.966095 
z"/>
<path fill="#D72F27" opacity="1.000000" stroke="none" 
	d="
M456.992188,237.988342 
	C460.926544,219.085175 469.823425,204.034637 488.408875,195.912949 
	C496.672211,192.301926 504.975739,189.298813 514.034058,190.182388 
	C531.895203,191.924606 548.063538,197.828644 559.027710,212.848541 
	C563.385742,218.818588 565.730530,226.258255 568.938416,233.870972 
	C568.973145,238.478683 569.065979,242.244186 569.148438,246.009949 
	C569.253662,250.816132 569.350342,255.622482 569.450745,260.428772 
	C565.301392,285.796783 544.997375,305.147614 518.843445,307.180176 
	C501.275238,308.545471 486.172974,303.591278 473.544525,291.875458 
	C464.634430,283.609222 459.564941,272.771637 457.520844,260.081421 
	C457.490234,252.272629 457.241211,245.130478 456.992188,237.988342 
z"/>
<path fill="#D63027" opacity="1.000000" stroke="none" 
	d="
M741.550049,100.192383 
	C755.280579,100.770683 766.179260,106.788925 774.850708,117.292290 
	C779.216736,122.580688 783.750427,127.737831 788.363586,132.813126 
	C793.342102,138.290451 798.622314,143.497604 803.492371,149.066254 
	C804.615051,150.349915 804.602783,152.626083 804.686584,154.917419 
	C796.137451,163.937683 788.014587,172.486053 779.891724,181.034424 
	C775.426270,178.690216 770.821045,176.566299 766.576355,173.874008 
	C765.217712,173.012299 764.318176,170.720718 764.052490,168.956284 
	C762.285217,157.218552 757.428894,148.507965 743.862732,147.872955 
	C735.704224,147.491074 728.480835,150.945023 723.984985,159.445251 
	C721.924805,163.340271 720.334534,167.567902 719.137817,171.815613 
	C717.376831,178.066055 715.160706,179.684509 709.002747,178.525665 
	C707.505249,178.243866 705.858032,178.634201 704.296936,178.843750 
	C702.191895,179.126266 700.108948,179.795929 698.007080,179.838806 
	C690.643494,179.988983 683.275940,179.941437 675.376465,179.663193 
	C674.559326,179.183640 674.275635,179.009857 673.973877,178.455185 
	C673.690308,177.313873 673.139465,176.529465 673.201111,175.796585 
	C674.376526,161.824356 675.624084,147.858215 676.877197,133.485779 
	C677.685852,124.466911 678.473999,115.853035 679.262085,107.239151 
	C679.921936,106.845711 680.581848,106.452286 681.918213,106.134628 
	C689.029602,105.192238 695.464539,104.174072 701.899414,103.155907 
	C705.629272,102.444649 709.359192,101.733383 713.947876,101.046867 
	C723.721191,100.778534 732.635620,100.485458 741.550049,100.192383 
z"/>
<path fill="#D63027" opacity="1.000000" stroke="none" 
	d="
M306.171997,99.956985 
	C311.588531,100.969513 316.979523,102.156937 322.427734,102.952484 
	C330.096008,104.072205 337.806732,104.901321 345.983765,105.914749 
	C345.983765,106.965607 345.983765,108.572685 346.042419,111.061653 
	C346.127258,113.674812 346.153442,115.406097 346.068451,117.155197 
	C345.957275,117.173019 345.832977,117.253914 345.832977,117.253914 
	C345.832977,117.253914 346.102753,117.077888 346.411194,117.265038 
	C347.495361,124.455360 348.146332,131.475128 349.075195,138.457916 
	C350.572083,149.710922 352.252258,160.939529 353.855011,172.178452 
	C353.889313,172.341232 353.954895,172.504318 353.953308,172.666748 
	C353.924530,175.639648 354.704071,180.807968 353.702087,181.180496 
	C350.481079,182.378159 346.545685,182.260452 342.987518,181.822952 
	C334.844421,180.821701 326.768127,179.285812 318.646210,178.093033 
	C317.593994,177.938492 316.443085,178.609787 315.319305,178.757187 
	C312.923553,179.071457 311.750458,178.587738 310.931122,175.636856 
	C308.185547,165.748169 305.195099,155.278137 295.253998,150.316086 
	C282.599945,143.999847 267.476196,148.634613 264.997406,166.056702 
	C264.421143,170.107208 262.979340,173.305008 258.845947,175.135193 
	C255.294907,176.707474 252.074066,179.025482 248.032913,180.957489 
	C241.727890,175.024750 236.038559,169.202972 230.488327,163.251450 
	C227.124557,159.644470 223.976151,155.836639 220.730988,152.119019 
	C228.087601,144.270630 235.463562,136.440247 242.789551,128.563385 
	C245.141586,126.034485 247.327621,123.351997 249.648026,120.792755 
	C259.121155,110.344627 270.383026,102.726631 284.974548,99.088425 
	C292.591309,99.372513 299.381653,99.664749 306.171997,99.956985 
z"/>
<path fill="#F6F2E8" opacity="1.000000" stroke="none" 
	d="
M346.179626,117.137375 
	C346.153442,115.406097 346.127258,113.674812 346.096252,111.508148 
	C346.995300,109.704765 347.899170,108.336761 349.234222,106.316193 
	C362.349945,107.811310 376.413330,109.414459 390.933289,111.119896 
	C392.390289,120.533455 393.549438,129.831085 394.351257,139.159424 
	C395.369751,151.009186 396.075775,162.885590 396.973175,174.746216 
	C397.134247,176.874680 397.569397,178.982376 397.890808,181.520172 
	C396.091980,184.962570 393.285400,185.265121 390.108246,185.030090 
	C380.021484,184.283875 369.910187,183.817642 359.850098,182.821945 
	C358.446930,182.683075 356.860413,180.374710 356.101196,178.728256 
	C355.057587,176.465057 354.722107,173.875290 353.969116,171.801941 
	C352.252258,160.939529 350.572083,149.710922 349.075195,138.457916 
	C348.146332,131.475128 347.495361,124.455360 346.427856,117.282654 
	C346.136078,117.113113 346.179596,117.137375 346.179626,117.137375 
z"/>
<path fill="#F6F3E9" opacity="1.000000" stroke="none" 
	d="
M673.991882,178.836090 
	C674.275635,179.009857 674.559326,179.183640 674.915649,179.598709 
	C669.742920,181.225540 664.568848,183.090057 659.235474,183.881714 
	C651.682739,185.002792 644.013977,185.349426 636.391968,185.993103 
	C632.688660,186.305847 630.805054,184.665573 630.992981,180.833359 
	C631.279602,174.987518 631.523376,169.139587 631.418457,163.128693 
	C632.041748,148.258881 633.092102,133.556366 633.938110,118.842110 
	C634.032227,117.205177 632.962952,115.501335 632.228638,113.494453 
	C635.657776,112.117599 639.230286,110.618607 642.937195,110.121170 
	C652.458130,108.843544 662.034729,107.969170 671.598511,107.029526 
	C673.866272,106.806709 676.171082,106.960663 678.860474,107.090240 
	C678.473999,115.853035 677.685852,124.466911 676.549072,133.356232 
	C676.040588,133.184204 675.880737,132.736740 675.270874,131.029648 
	C674.735596,134.820129 674.325500,137.417648 674.009155,140.026535 
	C673.325928,145.660080 672.531799,151.286713 672.077942,156.939850 
	C671.553528,163.472000 671.248291,170.027969 671.138000,176.578491 
	C671.125610,177.314789 672.995056,178.082794 673.991882,178.836090 
z"/>
<path fill="#D53129" opacity="1.000000" stroke="none" 
	d="
M248.120102,240.024811 
	C245.100433,247.388000 241.652771,254.612793 239.211319,262.162964 
	C237.578751,267.211670 234.719711,268.661438 230.013306,267.993530 
	C225.935669,267.414917 223.570969,265.275116 224.999725,261.019043 
	C227.229126,254.377945 229.839600,247.864349 232.314026,241.306320 
	C232.802017,240.012939 233.405029,238.762939 233.955017,237.492935 
	C233.295898,236.917435 232.636795,236.341934 231.977676,235.766449 
	C231.019974,237.414093 230.307999,239.283539 229.058533,240.667862 
	C225.297028,244.835327 221.585098,249.116135 217.339584,252.752289 
	C214.814880,254.914612 211.482925,257.512146 207.808121,254.302338 
	C205.174820,252.002243 205.312759,245.996826 208.047989,242.447815 
	C212.452393,236.733047 216.964371,231.101181 221.592590,225.229141 
	C220.897903,224.607559 219.976349,223.782990 219.054794,222.958420 
	C219.466827,223.518997 219.878876,224.079575 220.290909,224.640137 
	C215.342957,228.775040 210.561737,233.136948 205.375061,236.946854 
	C202.867203,238.789047 199.601288,240.544662 196.671707,240.556015 
	C194.488312,240.564468 190.857651,238.003021 190.460052,236.057159 
	C189.937943,233.502014 191.264572,229.868820 193.021072,227.684143 
	C197.664612,221.908646 202.968155,216.663818 208.206161,210.994370 
	C207.355148,210.048126 206.608734,209.218170 205.665237,208.169098 
	C199.984558,212.401932 194.416779,216.610718 188.774994,220.717880 
	C187.084381,221.948608 185.211090,223.713821 183.378769,223.767227 
	C181.048859,223.835098 177.021317,222.873215 176.647980,221.538116 
	C175.729401,218.253250 175.094879,213.393448 176.864105,211.176437 
	C180.136383,207.075974 185.223419,204.430679 189.526642,201.142715 
	C191.316574,199.775070 193.034973,198.313782 194.296631,195.811401 
	C188.684280,197.203232 183.100540,198.729553 177.448013,199.932678 
	C174.418900,200.577408 171.275284,200.904114 168.176498,200.954819 
	C162.128922,201.053772 158.937744,196.472214 161.156967,190.955597 
	C161.498718,190.106049 162.816208,189.118225 163.702225,189.098862 
	C175.163010,188.848267 183.895126,182.047882 194.028076,176.992432 
	C203.279648,187.816559 211.470261,198.928345 220.515930,209.293930 
	C228.377090,218.302094 237.256638,226.417038 245.550354,235.057068 
	C246.788406,236.346802 247.282074,238.351089 248.120102,240.024811 
z"/>
<path fill="#D6332B" opacity="1.000000" stroke="none" 
	d="
M833.966614,176.831329 
	C841.352356,180.240738 848.707336,183.719635 856.148315,187.004028 
	C857.735779,187.704742 859.631104,187.724503 861.391907,188.012909 
	C865.136169,188.626175 868.623169,192.268692 867.879150,195.471893 
	C867.023254,199.157013 865.075867,201.701416 860.524902,202.122650 
	C853.114624,202.808548 847.478027,198.266220 840.928894,196.518356 
	C837.901978,195.710495 834.835815,195.049728 831.787415,194.322296 
	C831.546997,194.813660 831.306519,195.305023 831.066040,195.796387 
	C835.420898,198.850876 839.821533,201.842834 844.113098,204.983765 
	C846.611267,206.812103 849.021912,208.782852 851.316589,210.860992 
	C854.957092,214.157959 854.055481,218.212799 851.741882,221.396301 
	C849.526489,224.444580 845.997192,224.652115 842.634277,222.327927 
	C836.573364,218.139114 830.509033,213.950439 824.324280,209.950089 
	C823.261230,209.262451 821.594299,209.508530 820.206299,209.323288 
	C820.329712,210.891739 819.843567,213.012054 820.679504,213.935486 
	C824.851562,218.544174 829.515503,222.707047 833.696960,227.307999 
	C835.382935,229.163101 836.832703,231.621475 837.326904,234.023987 
	C837.618835,235.443359 836.229553,238.198746 834.905457,238.780136 
	C830.402344,240.757492 826.109192,240.497864 822.528992,236.184433 
	C818.833374,231.732132 814.678101,227.661377 810.723938,223.423721 
	C810.016968,223.690079 809.309937,223.956421 808.602966,224.222778 
	C808.831116,226.045746 808.497986,228.223236 809.386108,229.629364 
	C812.937195,235.251663 816.778198,240.699493 820.695312,246.078323 
	C822.678101,248.801056 823.452881,251.488235 820.631958,253.762024 
	C817.814575,256.032990 814.509216,257.049347 811.410583,253.950882 
	C806.497314,249.037949 801.630920,244.078125 796.744690,239.138153 
	C796.358337,239.361450 795.971924,239.584732 795.585571,239.808029 
	C797.284790,244.261063 799.003723,248.706741 800.675598,253.170013 
	C801.644226,255.755936 803.417114,258.437805 803.223999,260.953339 
	C803.018738,263.627075 801.463806,267.645081 799.503601,268.364014 
	C797.136658,269.232147 791.848328,268.085907 791.079285,266.360657 
	C787.130188,257.501221 784.226807,248.175629 781.350159,238.460480 
	C786.775085,233.430481 792.504639,229.520752 796.706726,224.365921 
	C808.097046,210.393112 818.829834,195.884766 829.851074,181.610138 
	C831.133972,179.948563 832.590576,178.421021 833.966614,176.831329 
z"/>
<path fill="#F7F3E8" opacity="1.000000" stroke="none" 
	d="
M833.813721,176.536850 
	C832.590576,178.421021 831.133972,179.948563 829.851074,181.610138 
	C818.829834,195.884766 808.097046,210.393112 796.706726,224.365921 
	C792.504639,229.520752 786.775085,233.430481 781.442993,238.076141 
	C778.881592,236.584808 776.619385,234.925415 773.921875,232.946716 
	C775.807983,230.458908 777.922913,227.701523 780.003967,224.918808 
	C789.470337,212.260254 790.253296,199.141296 782.099854,185.534302 
	C781.367065,184.311371 780.816223,182.979477 780.036255,181.366302 
	C788.014587,172.486053 796.137451,163.937683 804.548340,155.246796 
	C812.494873,157.344864 817.859436,162.882095 823.554810,167.994217 
	C826.787170,170.895523 830.283447,173.502701 833.813721,176.536850 
z"/>
<path fill="#F6F1E8" opacity="1.000000" stroke="none" 
	d="
M248.454971,239.857513 
	C247.282074,238.351089 246.788406,236.346802 245.550354,235.057068 
	C237.256638,226.417038 228.377090,218.302094 220.515930,209.293930 
	C211.470261,198.928345 203.279648,187.816559 194.388412,176.913971 
	C199.649918,171.753616 205.280396,166.751236 210.816193,161.646179 
	C214.030746,158.681717 217.093231,155.552353 220.477570,152.308105 
	C223.976151,155.836639 227.124557,159.644470 230.488327,163.251450 
	C236.038559,169.202972 241.727890,175.024750 247.674515,181.037994 
	C245.721619,185.949585 242.226456,190.530579 241.434982,195.538834 
	C239.696838,206.537369 240.746658,217.392532 248.787888,226.318726 
	C249.864822,227.514191 250.623352,229.002243 251.729263,230.164566 
	C253.497116,232.022568 253.632889,233.077576 251.117142,234.643860 
	C249.803360,235.461823 249.532013,237.954147 248.454971,239.857513 
z"/>
<path fill="#DCA8A7" opacity="1.000000" stroke="none" 
	d="
M764.425171,559.903748 
	C763.986328,545.977661 763.968262,531.896362 764.212646,517.391357 
	C764.475159,516.967651 764.817261,516.980835 764.817261,516.980835 
	C764.826782,531.236694 764.836304,545.492615 764.425171,559.903748 
z"/>
<path fill="#C77978" opacity="1.000000" stroke="none" 
	d="
M763.951294,457.939880 
	C763.347717,448.182739 762.913574,437.904449 762.126343,427.653290 
	C761.843140,423.966064 763.798462,419.660706 759.541748,416.509705 
	C760.735046,416.211823 762.171387,416.136536 763.981201,416.041656 
	C763.981201,430.065948 763.981201,443.747681 763.951294,457.939880 
z"/>
<path fill="#D89D9C" opacity="1.000000" stroke="none" 
	d="
M741.425598,696.940125 
	C742.336426,692.198669 743.582031,687.326294 744.913757,682.477478 
	C747.698486,672.338379 750.528625,662.211792 753.631104,651.800537 
	C751.473328,661.680786 749.144714,671.871704 746.525024,681.987122 
	C745.225952,687.002930 743.391541,691.880005 741.425598,696.940125 
z"/>
<path fill="#DCA8A7" opacity="1.000000" stroke="none" 
	d="
M738.936157,413.533661 
	C728.307312,413.115540 717.491699,412.385010 706.691650,411.470276 
	C701.455627,411.026794 696.248840,410.237854 690.739258,409.400391 
	C698.007080,409.802155 705.564758,410.405670 713.121826,411.016815 
	C717.148865,411.342499 721.174866,411.679749 725.201111,412.014374 
	C729.719482,412.389862 734.237610,412.768280 738.936157,413.533661 
z"/>
<path fill="#C77978" opacity="1.000000" stroke="none" 
	d="
M264.208191,424.557098 
	C264.826904,424.989594 265.835632,425.871826 265.846588,426.766266 
	C265.950012,435.211548 265.900879,443.659058 265.824677,452.105316 
	C265.819794,452.645508 265.225067,453.180359 264.527893,453.806519 
	C264.145813,444.267700 264.140564,434.640106 264.208191,424.557098 
z"/>
<path fill="#DCA8A7" opacity="1.000000" stroke="none" 
	d="
M483.845276,118.095306 
	C475.071442,117.977966 466.297607,117.860619 457.232666,117.440308 
	C473.325409,117.096695 489.709290,117.056053 506.572205,117.267616 
	C507.051300,117.519821 507.086578,117.864143 506.611206,117.903427 
	C498.705658,117.993584 491.275452,118.044441 483.845276,118.095306 
z"/>
<path fill="#E6C1C0" opacity="1.000000" stroke="none" 
	d="
M764.882446,516.517456 
	C764.817261,516.980835 764.475159,516.967651 764.304077,516.966187 
	C763.973145,504.732971 763.813354,492.501190 763.802246,479.339233 
	C763.782898,474.300507 763.614868,470.191925 763.446838,466.083313 
	C763.446838,466.083313 763.322327,465.615204 763.475708,465.036621 
	C763.571167,462.914642 763.513245,461.371246 763.455383,459.827850 
	C763.500000,459.610168 763.544556,459.392456 763.718994,458.866852 
	C764.253113,460.204956 765.003784,461.850067 765.008301,463.497192 
	C765.056213,481.015961 764.985657,498.535065 764.882446,516.517456 
z"/>
<path fill="#E6C1C0" opacity="1.000000" stroke="none" 
	d="
M507.086578,117.864143 
	C507.086578,117.864143 507.051300,117.519821 507.036194,117.347420 
	C523.212708,117.196602 539.404358,117.218178 555.839600,117.602921 
	C553.681946,118.295769 551.280762,118.625443 548.133667,118.630219 
	C533.954041,118.158264 520.520325,118.011200 507.086578,117.864143 
z"/>
<path fill="#D39695" opacity="1.000000" stroke="none" 
	d="
M433.479309,188.945038 
	C435.728058,188.585526 438.443268,188.021347 441.148712,188.064911 
	C449.572876,188.200577 457.993317,188.566498 466.848511,188.911377 
	C461.531158,189.312729 455.781189,189.891388 450.029663,189.907318 
	C444.667755,189.922180 439.304169,189.338593 433.479309,188.945038 
z"/>
<path fill="#D89D9C" opacity="1.000000" stroke="none" 
	d="
M761.340149,588.023010 
	C761.672913,579.436096 762.004578,570.849060 762.351807,562.262756 
	C762.356018,562.159973 762.552185,562.000366 762.674927,561.983337 
	C762.823975,561.962646 762.990173,562.065247 763.414795,562.253662 
	C763.449036,570.629944 763.217407,578.867126 762.665649,587.555054 
	C762.010376,588.011597 761.675293,588.017273 761.340149,588.023010 
z"/>
<path fill="#E6C1C0" opacity="1.000000" stroke="none" 
	d="
M415.925873,379.524445 
	C416.450653,379.655853 417.491791,380.253723 417.486969,380.843018 
	C417.430359,387.740112 417.375946,394.647919 416.858337,401.518066 
	C416.787415,402.459747 414.204956,403.212219 412.358521,403.970917 
	C413.182770,403.416260 414.433777,402.942993 415.956360,402.367004 
	C415.956360,395.053436 415.956360,387.520172 415.925873,379.524445 
z"/>
<path fill="#D08C8B" opacity="1.000000" stroke="none" 
	d="
M569.575134,260.143250 
	C569.350342,255.622482 569.253662,250.816132 569.148438,246.009949 
	C569.065979,242.244186 568.973145,238.478683 568.940796,234.228821 
	C572.139465,239.391800 570.610657,245.521606 570.706604,251.455750 
	C570.751892,254.250244 570.058289,257.056671 569.575134,260.143250 
z"/>
<path fill="#DCA8A7" opacity="1.000000" stroke="none" 
	d="
M262.544861,508.198730 
	C263.024506,523.411438 263.107697,538.805847 263.130493,554.676453 
	C262.686798,554.361816 261.969299,553.570862 261.969757,552.780212 
	C261.978424,537.980286 262.072327,523.180420 262.544861,508.198730 
z"/>
<path fill="#D89D9C" opacity="1.000000" stroke="none" 
	d="
M263.087128,458.222412 
	C263.714844,458.509491 264.681549,459.289520 264.661255,460.042999 
	C264.458801,467.563965 264.093658,475.080627 263.466064,482.839355 
	C263.094513,474.954468 263.031311,466.828735 263.087128,458.222412 
z"/>
<path fill="#D08C8B" opacity="1.000000" stroke="none" 
	d="
M610.892761,399.441223 
	C610.487549,400.237305 610.130981,400.576660 608.488464,402.139709 
	C609.110046,393.670258 609.638184,386.472748 610.562134,379.244049 
	C610.952454,385.803436 610.946899,392.393951 610.892761,399.441223 
z"/>
<path fill="#C77978" opacity="1.000000" stroke="none" 
	d="
M646.980957,406.411316 
	C641.602783,406.884552 636.200134,407.025543 630.800354,406.952209 
	C629.287781,406.931702 627.783813,406.280090 626.189209,405.538116 
	C632.422119,405.093811 638.741821,404.999634 645.061340,405.010956 
	C645.693970,405.012085 646.325439,405.653625 646.980957,406.411316 
z"/>
<path fill="#CF7F7D" opacity="1.000000" stroke="none" 
	d="
M456.585907,238.159821 
	C457.241211,245.130478 457.490234,252.272629 457.435547,259.703094 
	C456.814453,252.771378 456.497040,245.551331 456.585907,238.159821 
z"/>
<path fill="#D39695" opacity="1.000000" stroke="none" 
	d="
M305.997986,99.570450 
	C299.381653,99.664749 292.591309,99.372513 285.356842,99.044029 
	C290.632599,98.818939 296.351593,98.580048 302.073029,98.480606 
	C303.318878,98.458954 304.573425,98.936363 305.997986,99.570450 
z"/>
<path fill="#DCA8A7" opacity="1.000000" stroke="none" 
	d="
M701.460754,103.098145 
	C695.464539,104.174072 689.029602,105.192238 682.216675,106.151077 
	C684.115906,105.404198 686.351624,104.417656 688.679443,104.095108 
	C692.763916,103.529137 696.904846,103.369949 701.460754,103.098145 
z"/>
<path fill="#D39695" opacity="1.000000" stroke="none" 
	d="
M741.122192,100.161697 
	C732.635620,100.485458 723.721191,100.778534 714.333374,101.002289 
	C715.684021,100.606400 717.505859,100.014420 719.332275,100.000122 
	C726.452209,99.944405 733.573547,100.071754 741.122192,100.161697 
z"/>
<path fill="#D89D9C" opacity="1.000000" stroke="none" 
	d="
M292.492188,414.084778 
	C287.235718,414.459442 281.516235,414.773376 275.383118,415.039612 
	C278.855560,414.661835 282.738342,414.283203 286.629059,414.023315 
	C288.421082,413.903625 290.228638,414.016541 292.492188,414.084778 
z"/>
<path fill="#D89D9C" opacity="1.000000" stroke="none" 
	d="
M754.260803,651.233398 
	C754.646606,648.135559 755.373108,644.785645 756.445374,641.380737 
	C756.061279,644.544250 755.331360,647.762695 754.260803,651.233398 
z"/>
<path fill="#DCA8A7" opacity="1.000000" stroke="none" 
	d="
M761.251587,588.441833 
	C761.675293,588.017273 762.010376,588.011597 762.597290,588.004028 
	C762.783508,590.328430 762.717896,592.654663 762.297729,595.249756 
	C761.683105,593.299377 761.423035,591.080017 761.251587,588.441833 
z"/>
<path fill="#DCA8A7" opacity="1.000000" stroke="none" 
	d="
M761.474365,604.923706 
	C761.150146,602.106079 761.220825,599.097229 761.629883,595.778259 
	C761.935303,598.556274 761.902222,601.644348 761.474365,604.923706 
z"/>
<path fill="#D89D9C" opacity="1.000000" stroke="none" 
	d="
M740.347839,698.005493 
	C740.211853,697.691162 740.334473,697.317688 740.763428,696.990845 
	C740.915344,697.340393 740.760925,697.643372 740.347839,698.005493 
z"/>
<path fill="#FCFBF8" opacity="1.000000" stroke="none" 
	d="
M433.009827,507.031403 
	C428.649048,514.462891 422.289520,519.802734 415.001404,524.142151 
	C406.053253,529.469910 395.933746,530.601196 385.928192,531.879089 
	C376.890015,533.033264 367.785004,533.664307 358.085785,534.585266 
	C357.918579,538.289368 357.734314,542.371399 357.550049,546.453369 
	C357.481323,546.458862 357.412598,546.464355 357.343903,546.469788 
	C357.097412,542.998840 356.850922,539.527832 356.604431,536.056824 
	C356.372833,536.061096 356.141266,536.065430 355.909668,536.069702 
	C355.909668,548.128906 355.508698,560.208191 356.111664,572.237183 
	C356.345062,576.893372 355.262970,578.291504 350.983124,577.934021 
	C349.996155,577.851562 348.990265,577.995239 347.107544,578.084351 
	C342.238831,578.710022 338.270660,579.444031 334.268860,579.822693 
	C329.162354,580.305786 324.028656,580.501770 318.906677,580.821533 
	C317.903809,579.601746 316.027771,578.384644 316.023956,577.161743 
	C315.875488,529.714783 315.898041,482.267365 315.898041,434.097137 
	C323.316772,433.445587 330.500763,432.523895 337.709869,432.240326 
	C354.138000,431.594025 370.589539,431.501892 387.011383,430.746033 
	C414.536133,429.479187 430.017334,440.455536 437.596436,467.843048 
	C438.698975,479.675171 438.360107,490.684204 434.509125,501.386963 
	C433.852478,503.212006 433.501831,505.147125 433.009827,507.031403 
M355.733368,501.251495 
	C364.127991,500.921936 372.570892,501.046204 380.906311,500.159760 
	C394.426270,498.721954 400.318817,491.076508 399.318817,477.376526 
	C398.607330,467.629059 392.423889,461.967285 382.681366,461.999237 
	C375.203064,462.023743 367.724335,461.892029 360.245667,461.868622 
	C358.657867,461.863647 357.069550,462.027008 355.556915,462.108734 
	C355.556915,475.224854 355.556915,487.835083 355.733368,501.251495 
z"/>
<path fill="#FDFBF9" opacity="1.000000" stroke="none" 
	d="
M655.008179,702.935669 
	C646.992798,658.216675 622.879333,624.118652 586.023010,597.880737 
	C591.065613,597.880737 596.108521,597.844910 601.150757,597.887756 
	C613.971680,597.996826 626.806946,597.802368 639.609192,598.358582 
	C654.997620,599.027100 670.361328,600.296753 685.729065,601.399231 
	C698.795410,602.336548 711.855042,603.372253 724.910767,604.447327 
	C727.339478,604.647400 729.155457,604.694153 729.337769,608.645813 
	C730.048218,624.037720 725.326172,638.483154 722.567261,653.262085 
	C719.704651,668.596375 714.021851,682.998657 707.661621,697.183838 
	C699.744690,714.841064 690.130493,731.498413 677.341736,746.006592 
	C669.247437,755.189270 659.962097,763.322144 650.009033,773.107544 
	C651.991089,761.822510 653.731262,751.914917 655.630615,741.222778 
	C655.817871,739.255493 655.845947,738.072693 655.924133,736.430542 
	C655.934753,726.692200 655.895264,717.413147 655.934692,707.750122 
	C655.678528,705.889343 655.343384,704.412537 655.008179,702.935669 
z"/>
<path fill="#FEFBF9" opacity="1.000000" stroke="none" 
	d="
M399.820618,637.851624 
	C382.381378,661.693787 372.528564,688.026428 371.458618,717.179260 
	C371.090454,727.210022 373.156891,737.353577 374.385925,747.411987 
	C375.348022,755.285889 376.734100,763.107971 377.412659,771.259155 
	C351.944855,751.725708 334.377625,726.003235 320.663116,697.593445 
	C306.996307,669.282471 298.501709,639.411865 297.458435,607.762695 
	C314.039795,601.677917 436.073486,594.438232 441.693176,599.265808 
	C426.157471,610.264893 411.607941,622.306213 399.820618,637.851624 
z"/>
<path fill="#FCFAF7" opacity="1.000000" stroke="none" 
	d="
M450.704773,560.318298 
	C454.359985,551.190918 458.173615,542.262024 462.386993,533.526001 
	C462.789124,532.692200 465.850189,532.508301 467.401917,532.962341 
	C478.959717,536.343872 490.366760,540.265991 501.991394,543.383545 
	C508.118561,545.026733 514.406860,544.761353 520.359253,541.431702 
	C526.383545,538.061829 528.665222,531.449158 524.369507,526.043335 
	C522.022461,523.089783 518.485596,520.595764 514.969238,519.147522 
	C503.938385,514.604370 492.394928,511.247742 481.544189,506.339172 
	C465.029022,498.868195 454.709412,486.265808 454.178070,467.436493 
	C453.693695,450.272461 465.032318,434.407227 481.628845,427.645233 
	C494.988586,422.202026 509.085724,421.681244 522.831482,423.567657 
	C536.114380,425.390533 549.026001,429.918915 562.692871,433.410095 
	C558.078796,444.132355 553.968933,453.682892 549.608215,463.816406 
	C543.335938,461.638306 537.163574,459.503723 530.997375,457.351532 
	C521.083862,453.891388 511.161774,453.808594 501.187134,457.130432 
	C496.954895,458.539917 493.464874,460.715088 493.419983,465.659210 
	C493.375366,470.569183 495.640228,474.209808 500.421234,476.101013 
	C510.441315,480.064728 520.648071,483.647217 530.367737,488.252411 
	C538.888184,492.289368 547.244446,496.958344 554.881409,502.449280 
	C558.485291,505.040405 561.410339,509.900116 562.567139,514.280212 
	C564.644226,522.144348 566.915649,530.661072 565.857239,538.464600 
	C564.635986,547.469299 560.846985,556.466125 553.209167,562.864502 
	C545.082520,569.672363 535.515015,573.719360 525.382507,575.519165 
	C511.602814,577.966797 497.809509,576.176880 483.992432,573.825317 
	C471.856293,571.759705 461.524048,566.104980 450.704773,560.318298 
z"/>
<path fill="#FCFAF8" opacity="1.000000" stroke="none" 
	d="
M684.071289,432.145355 
	C684.800720,432.134094 685.530090,432.122864 686.958496,432.302032 
	C694.816406,432.964508 701.975220,433.436554 709.134094,433.908600 
	C714.265381,434.186615 719.396606,434.464630 725.227966,434.780579 
	C724.195251,437.938385 723.359192,441.072998 722.162842,444.063477 
	C710.511963,473.187195 698.746887,502.265320 687.131287,531.403015 
	C681.871643,544.596924 676.715759,557.837524 671.850403,571.180054 
	C670.277344,575.494019 667.711182,577.238953 663.378296,577.075684 
	C651.745239,576.637268 640.104004,576.346619 628.486633,575.653015 
	C627.112610,575.570923 625.198059,573.585205 624.662781,572.080505 
	C618.268250,554.104919 612.101746,536.048340 605.847473,518.022705 
	C595.792969,489.044128 585.716248,460.073273 575.654724,431.097137 
	C575.118896,429.554016 574.636902,427.992157 573.894470,425.718262 
	C579.000610,425.718262 583.622437,425.718262 588.800049,425.985535 
	C597.579224,426.662750 605.802612,427.072662 614.025940,427.482574 
	C614.444763,427.643219 614.863647,427.803894 615.437744,428.471130 
	C616.046936,430.009064 616.500854,431.040375 616.954834,432.071716 
	C627.317383,465.865692 637.679932,499.659668 648.046631,533.467224 
	C659.711304,500.276825 671.389587,467.047607 683.271545,433.300507 
	C683.688721,432.584045 683.887390,432.371613 684.071289,432.145355 
z"/>
<path fill="#F9F3F2" opacity="1.000000" stroke="none" 
	d="
M401.897430,682.015137 
	C406.626160,668.376770 414.175995,656.358582 423.675507,645.644531 
	C441.745178,625.264587 464.478088,612.719360 491.225616,608.239929 
	C503.265167,606.223694 515.852844,604.518799 527.851746,605.816650 
	C555.776428,608.837036 579.907898,620.996033 599.792480,641.116211 
	C619.499512,661.056641 629.873779,685.453857 633.408875,712.886841 
	C634.180176,718.872253 632.806702,725.104980 632.806458,731.223816 
	C632.804688,767.102417 617.019348,795.529175 590.492310,818.215881 
	C574.295044,832.068176 555.681213,842.064087 534.082642,845.065308 
	C527.690002,845.953613 521.222046,846.388245 514.772949,846.751587 
	C510.179932,847.010437 505.560638,846.801819 500.999634,847.577698 
	C501.482666,847.315247 501.965698,847.052795 501.189667,847.474426 
	C492.853455,845.120911 483.293854,843.606323 474.751007,839.806152 
	C436.857758,822.949463 407.074921,798.327698 397.645264,755.322388 
	C394.234680,739.767944 393.648499,724.016724 394.496704,707.861450 
	C397.104675,699.036194 399.501038,690.525635 401.897430,682.015137 
M492.223480,619.865295 
	C487.033356,621.449402 481.792786,622.886047 476.661133,624.641174 
	C438.336273,637.749268 417.167450,666.294861 407.329987,703.947571 
	C402.624512,721.957703 404.805603,740.277588 410.474335,758.169739 
	C422.783661,797.020996 449.027527,820.777283 488.684204,831.401855 
	C493.636566,832.518982 498.549011,833.876831 503.549194,834.705383 
	C515.573120,836.697693 527.556152,837.373352 539.875977,832.096436 
	C547.392700,829.541382 555.577148,828.139526 562.314636,824.238647 
	C598.183167,803.470642 620.861633,773.830811 621.301270,730.741577 
	C621.420837,719.025208 620.541565,707.067200 618.219910,695.605164 
	C613.269470,671.165344 597.355896,653.677551 578.794495,638.340149 
	C560.154663,622.937988 537.576416,618.998474 514.503784,617.410461 
	C507.464508,616.925903 500.247131,619.028809 493.061279,619.916626 
	C493.061279,619.916626 493.061829,619.858154 492.223480,619.865295 
z"/>
<path fill="#C05C59" opacity="1.000000" stroke="none" 
	d="
M433.340271,506.895752 
	C433.501831,505.147125 433.852478,503.212006 434.509125,501.386963 
	C438.360107,490.684204 438.698975,479.675171 437.699036,468.194031 
	C441.764038,476.815887 440.470154,485.947266 438.382690,494.941315 
	C437.434753,499.025421 435.278717,502.829163 433.340271,506.895752 
z"/>
<path fill="#D08C8B" opacity="1.000000" stroke="none" 
	d="
M709.383179,433.591553 
	C701.975220,433.436554 694.816406,432.964508 687.320923,432.259979 
	C691.343262,431.682617 695.709900,430.980988 700.059143,431.076263 
	C706.621155,431.220062 713.170898,431.920135 719.745361,432.717651 
	C716.374329,432.903259 713.003296,433.088867 709.383179,433.591553 
z"/>
<path fill="#D39695" opacity="1.000000" stroke="none" 
	d="
M319.371521,580.925659 
	C324.028656,580.501770 329.162354,580.305786 334.268860,579.822693 
	C338.270660,579.444031 342.238831,578.710022 346.681030,578.150452 
	C347.658691,578.746948 348.177246,579.326904 349.699829,581.029785 
	C339.051422,581.029785 329.443878,581.029785 319.371521,580.925659 
z"/>
<path fill="#CF7F7D" opacity="1.000000" stroke="none" 
	d="
M613.893921,427.128632 
	C605.802612,427.072662 597.579224,426.662750 589.251343,425.823547 
	C597.351807,425.854462 605.556824,426.314575 613.893921,427.128632 
z"/>
<path fill="#B02B24" opacity="1.000000" stroke="none" 
	d="
M401.637482,682.237061 
	C399.501038,690.525635 397.104675,699.036194 394.400635,707.418640 
	C396.521179,699.013428 398.949341,690.736206 401.637482,682.237061 
z"/>
<path fill="#CF7F7D" opacity="1.000000" stroke="none" 
	d="
M654.730347,703.254639 
	C655.343384,704.412537 655.678528,705.889343 655.672546,708.057800 
	C655.512329,718.129578 655.693237,727.509705 655.874084,736.889893 
	C655.845947,738.072693 655.817871,739.255493 655.614441,740.851196 
	C654.969727,740.456116 654.089294,739.646362 654.092773,738.840393 
	C654.143372,727.084534 654.312012,715.329102 654.730347,703.254639 
z"/>
<path fill="#CF7F7D" opacity="1.000000" stroke="none" 
	d="
M379.066711,429.016785 
	C375.783356,429.016785 372.984039,429.016785 370.184753,429.016785 
	C370.188934,428.762177 370.193146,428.507599 370.197327,428.252991 
	C377.715546,428.252991 385.233795,428.252991 392.752014,428.252991 
	C392.766052,428.507599 392.780060,428.762207 392.794067,429.016815 
	C388.379639,429.016815 383.965210,429.016815 379.066711,429.016785 
z"/>
<path fill="#DCA8A7" opacity="1.000000" stroke="none" 
	d="
M763.328613,466.522491 
	C763.614868,470.191925 763.782898,474.300507 763.874634,478.899292 
	C763.602356,475.246857 763.406372,471.104248 763.328613,466.522491 
z"/>
<path fill="#CF7F7D" opacity="1.000000" stroke="none" 
	d="
M617.240601,431.905701 
	C616.500854,431.040375 616.046936,430.009064 615.608887,428.628296 
	C616.258667,429.432465 616.892578,430.586090 617.240601,431.905701 
z"/>
<path fill="#C77978" opacity="1.000000" stroke="none" 
	d="
M763.293457,460.173401 
	C763.513245,461.371246 763.571167,462.914642 763.447510,464.796082 
	C763.221252,463.595734 763.176453,462.057343 763.293457,460.173401 
z"/>
<path fill="#D08C8B" opacity="1.000000" stroke="none" 
	d="
M683.783447,432.114716 
	C683.887390,432.371613 683.688721,432.584045 683.310425,432.925354 
	C683.262390,432.740051 683.379028,432.412079 683.783447,432.114716 
z"/>
<path fill="#D08C8B" opacity="1.000000" stroke="none" 
	d="
M506.611206,117.903427 
	C520.520325,118.011200 533.954041,118.158264 547.709106,118.567215 
	C526.874512,118.732689 505.718628,118.636269 484.204041,118.317581 
	C491.275452,118.044441 498.705658,117.993584 506.611206,117.903427 
z"/>
<path fill="#000000" opacity="1.000000" stroke="none" 
	d="
M673.973877,178.455200 
	C672.995056,178.082794 671.125610,177.314789 671.138000,176.578491 
	C671.248291,170.027969 671.553528,163.472000 672.077942,156.939850 
	C672.531799,151.286713 673.325928,145.660080 674.009155,140.026535 
	C674.325500,137.417648 674.735596,134.820129 675.270874,131.029648 
	C675.880737,132.736740 676.040588,133.184204 676.528564,133.761230 
	C675.624084,147.858215 674.376526,161.824356 673.201111,175.796585 
	C673.139465,176.529465 673.690308,177.313873 673.973877,178.455200 
z"/>
<path fill="#F6F2E8" opacity="1.000000" stroke="none" 
	d="
M346.119415,117.095505 
	C346.102753,117.077888 345.832977,117.253914 345.832977,117.253914 
	C345.832977,117.253914 345.957275,117.173019 346.068420,117.155197 
	C346.179596,117.137375 346.136078,117.113113 346.119415,117.095505 
z"/>
<path fill="#D63229" opacity="1.000000" stroke="none" 
	d="
M355.645142,500.848419 
	C355.556915,487.835083 355.556915,475.224854 355.556915,462.108734 
	C357.069550,462.027008 358.657867,461.863647 360.245667,461.868622 
	C367.724335,461.892029 375.203064,462.023743 382.681366,461.999237 
	C392.423889,461.967285 398.607330,467.629059 399.318817,477.376526 
	C400.318817,491.076508 394.426270,498.721954 380.906311,500.159760 
	C372.570892,501.046204 364.127991,500.921936 355.645142,500.848419 
z"/>
<path fill="#A61B18" opacity="1.000000" stroke="none" 
	d="
M655.924194,736.430542 
	C655.693237,727.509705 655.512329,718.129578 655.593567,708.441772 
	C655.895264,717.413147 655.934753,726.692200 655.924194,736.430542 
z"/>
<path fill="#D63128" opacity="1.000000" stroke="none" 
	d="
M488.105011,830.963867 
	C449.027527,820.777283 422.783661,797.020996 410.474335,758.169739 
	C404.805603,740.277588 402.624512,721.957703 407.329987,703.947571 
	C417.167450,666.294861 438.336273,637.749268 476.661133,624.641174 
	C481.792786,622.886047 487.033356,621.449402 492.704834,619.899048 
	C493.186157,619.932861 493.060364,620.100769 493.060364,620.100769 
	C493.060364,620.100769 493.111328,619.946777 493.111328,619.946777 
	C500.247131,619.028809 507.464508,616.925903 514.503784,617.410461 
	C537.576416,618.998474 560.154663,622.937988 578.794495,638.340149 
	C597.355896,653.677551 613.269470,671.165344 618.219910,695.605164 
	C620.541565,707.067200 621.420837,719.025208 621.301270,730.741577 
	C620.861633,773.830811 598.183167,803.470642 562.314636,824.238647 
	C555.577148,828.139526 547.392700,829.541382 539.031738,832.056274 
	C536.701782,832.097900 535.082031,831.821045 533.751343,832.317932 
	C522.280029,836.602112 510.713104,832.392151 499.203918,832.746155 
	C495.526031,832.859253 491.805847,831.596863 488.105011,830.963867 
M533.643921,823.015442 
	C534.749817,822.351257 536.214600,821.944397 536.904663,820.982056 
	C542.232300,813.552856 547.607300,806.140137 552.468689,798.408630 
	C553.446350,796.853638 553.043213,793.512512 551.992798,791.768066 
	C548.484192,785.941406 544.010803,780.683350 540.648804,774.784729 
	C538.088257,770.292297 534.755432,768.671509 529.864746,768.594727 
	C518.893494,768.422607 507.927673,767.842224 496.957214,767.765503 
	C495.384796,767.754395 493.347900,769.276978 492.296631,770.671021 
	C487.292908,777.305908 482.700073,784.252014 477.658783,790.856689 
	C475.356049,793.873596 475.481903,796.400879 477.281128,799.469177 
	C480.555145,805.052490 484.055756,810.570435 486.626587,816.479065 
	C489.112915,822.193420 492.937073,825.243530 498.992249,825.677490 
	C501.639191,825.867188 504.299164,825.875244 507.788879,826.075562 
	C516.530151,828.310120 524.874329,826.927368 533.643921,823.015442 
M580.567139,650.923706 
	C571.975769,643.257141 562.484131,637.094177 551.428345,633.086243 
	C552.039551,641.416321 552.052551,641.440735 544.525208,645.441772 
	C536.597229,649.655884 528.701416,653.938660 520.662415,657.931274 
	C518.056946,659.225342 516.973938,660.657959 517.168884,663.636597 
	C517.614624,670.449707 517.569702,677.295166 518.032532,684.106567 
	C518.138733,685.669312 519.126038,687.572815 520.325012,688.597107 
	C529.823120,696.711914 539.501770,704.614929 549.052185,712.669312 
	C551.743469,714.939026 554.427612,715.379700 557.811951,714.301208 
	C565.705200,711.785828 573.639282,709.339417 581.682007,707.378113 
	C585.553406,706.433960 586.339172,704.333130 586.936096,700.829529 
	C588.878845,689.427551 587.116882,677.107361 595.401306,666.608582 
	C590.633545,661.530884 585.869080,656.456665 580.567139,650.923706 
M481.150726,710.799133 
	C488.892395,704.488281 496.865112,698.431458 504.243225,691.720886 
	C506.639709,689.541199 508.275238,685.791809 508.853699,682.512573 
	C509.799561,677.150513 509.373688,671.562378 509.939514,666.112549 
	C510.450562,661.190125 509.084778,657.833557 504.294281,655.779358 
	C496.520203,652.445740 488.864532,648.829346 481.216400,645.210632 
	C473.418060,641.520752 474.113434,642.521484 475.871216,635.106323 
	C475.925079,634.879150 475.604492,634.563232 475.366943,634.116699 
	C461.989197,639.406860 450.780029,647.839355 440.668579,657.888855 
	C436.832916,661.701050 431.636414,665.226074 437.860229,671.181335 
	C438.052765,671.365540 437.995941,671.817688 438.041626,672.146912 
	C439.364899,681.678162 440.987732,691.181946 441.870880,700.753967 
	C442.265350,705.029602 444.034546,707.052979 447.893311,708.009033 
	C455.453186,709.881958 462.997772,711.818848 470.529388,713.802612 
	C474.387787,714.818848 477.763428,714.265442 481.150726,710.799133 
M480.831421,771.304382 
	C483.076324,767.232178 487.555267,763.980896 485.567535,758.356201 
	C481.540924,746.962158 477.565857,735.549500 473.416534,724.200439 
	C473.066956,723.244263 471.665039,722.301453 470.585938,722.041260 
	C460.790192,719.678772 450.972290,717.399719 441.113892,715.318787 
	C440.077454,715.099915 438.275482,715.984131 437.613892,716.914795 
	C432.612091,723.950500 427.990906,731.263489 422.827698,738.173706 
	C421.272278,740.255371 418.380646,741.338623 415.420654,743.339111 
	C417.588074,756.682312 423.690155,769.861694 431.789642,782.120789 
	C433.245605,784.324402 436.293762,786.194702 438.921783,786.763367 
	C445.451752,788.176453 452.173035,788.686218 458.799469,789.678833 
	C464.318176,790.505554 469.033234,790.362183 472.024139,784.272156 
	C474.200836,779.840149 477.552765,775.985229 480.831421,771.304382 
M559.862244,722.122375 
	C557.837708,724.378235 554.993530,726.305908 553.935303,728.948669 
	C550.057312,738.633362 546.824219,748.574463 543.238464,758.378845 
	C541.973511,761.837646 542.519531,764.718079 544.755188,767.640198 
	C549.504333,773.847534 553.784790,780.433289 558.812195,786.396240 
	C560.420288,788.303528 563.876038,789.858826 566.311523,789.638855 
	C573.887329,788.954346 581.440979,787.615417 588.870422,785.940979 
	C591.496155,785.349182 594.709778,783.625671 595.983765,781.443237 
	C600.721375,773.327576 604.900085,764.872437 609.021301,756.414490 
	C611.975037,750.352661 612.603882,745.219788 606.411560,739.569580 
	C600.137573,733.844849 595.805603,725.982239 590.677490,719.015930 
	C588.486633,716.039734 585.990173,714.704590 582.130981,715.905090 
	C575.018494,718.117493 567.795593,719.975037 559.862244,722.122375 
z"/>
<path fill="#B7322C" opacity="1.000000" stroke="none" 
	d="
M488.394592,831.182861 
	C491.805847,831.596863 495.526031,832.859253 499.203918,832.746155 
	C510.713104,832.392151 522.280029,836.602112 533.751343,832.317932 
	C535.082031,831.821045 536.701782,832.097900 538.619812,832.020752 
	C527.556152,837.373352 515.573120,836.697693 503.549194,834.705383 
	C498.549011,833.876831 493.636566,832.518982 488.394592,831.182861 
z"/>
<path fill="#FDFBF8" opacity="1.000000" stroke="none" 
	d="
M580.835938,651.153076 
	C585.869080,656.456665 590.633545,661.530884 595.401306,666.608582 
	C587.116882,677.107361 588.878845,689.427551 586.936096,700.829529 
	C586.339172,704.333130 585.553406,706.433960 581.682007,707.378113 
	C573.639282,709.339417 565.705200,711.785828 557.811951,714.301208 
	C554.427612,715.379700 551.743469,714.939026 549.052185,712.669312 
	C539.501770,704.614929 529.823120,696.711914 520.325012,688.597107 
	C519.126038,687.572815 518.138733,685.669312 518.032532,684.106567 
	C517.569702,677.295166 517.614624,670.449707 517.168884,663.636597 
	C516.973938,660.657959 518.056946,659.225342 520.662415,657.931274 
	C528.701416,653.938660 536.597229,649.655884 544.525208,645.441772 
	C552.052551,641.440735 552.039551,641.416321 551.428345,633.086243 
	C562.484131,637.094177 571.975769,643.257141 580.835938,651.153076 
z"/>
<path fill="#FDFBF8" opacity="1.000000" stroke="none" 
	d="
M480.847076,711.015869 
	C477.763428,714.265442 474.387787,714.818848 470.529388,713.802612 
	C462.997772,711.818848 455.453186,709.881958 447.893311,708.009033 
	C444.034546,707.052979 442.265350,705.029602 441.870880,700.753967 
	C440.987732,691.181946 439.364899,681.678162 438.041626,672.146912 
	C437.995941,671.817688 438.052765,671.365540 437.860229,671.181335 
	C431.636414,665.226074 436.832916,661.701050 440.668579,657.888855 
	C450.780029,647.839355 461.989197,639.406860 475.366943,634.116699 
	C475.604492,634.563232 475.925079,634.879150 475.871216,635.106323 
	C474.113434,642.521484 473.418060,641.520752 481.216400,645.210632 
	C488.864532,648.829346 496.520203,652.445740 504.294281,655.779358 
	C509.084778,657.833557 510.450562,661.190125 509.939514,666.112549 
	C509.373688,671.562378 509.799561,677.150513 508.853699,682.512573 
	C508.275238,685.791809 506.639709,689.541199 504.243225,691.720886 
	C496.865112,698.431458 488.892395,704.488281 480.847076,711.015869 
z"/>
<path fill="#FCFBF8" opacity="1.000000" stroke="none" 
	d="
M480.606079,771.588745 
	C477.552765,775.985229 474.200836,779.840149 472.024139,784.272156 
	C469.033234,790.362183 464.318176,790.505554 458.799469,789.678833 
	C452.173035,788.686218 445.451752,788.176453 438.921783,786.763367 
	C436.293762,786.194702 433.245605,784.324402 431.789642,782.120789 
	C423.690155,769.861694 417.588074,756.682312 415.420654,743.339111 
	C418.380646,741.338623 421.272278,740.255371 422.827698,738.173706 
	C427.990906,731.263489 432.612091,723.950500 437.613892,716.914795 
	C438.275482,715.984131 440.077454,715.099915 441.113892,715.318787 
	C450.972290,717.399719 460.790192,719.678772 470.585938,722.041260 
	C471.665039,722.301453 473.066956,723.244263 473.416534,724.200439 
	C477.565857,735.549500 481.540924,746.962158 485.567535,758.356201 
	C487.555267,763.980896 483.076324,767.232178 480.606079,771.588745 
z"/>
<path fill="#FDFBF8" opacity="1.000000" stroke="none" 
	d="
M560.240479,722.051392 
	C567.795593,719.975037 575.018494,718.117493 582.130981,715.905090 
	C585.990173,714.704590 588.486633,716.039734 590.677490,719.015930 
	C595.805603,725.982239 600.137573,733.844849 606.411560,739.569580 
	C612.603882,745.219788 611.975037,750.352661 609.021301,756.414490 
	C604.900085,764.872437 600.721375,773.327576 595.983765,781.443237 
	C594.709778,783.625671 591.496155,785.349182 588.870422,785.940979 
	C581.440979,787.615417 573.887329,788.954346 566.311523,789.638855 
	C563.876038,789.858826 560.420288,788.303528 558.812195,786.396240 
	C553.784790,780.433289 549.504333,773.847534 544.755188,767.640198 
	C542.519531,764.718079 541.973511,761.837646 543.238464,758.378845 
	C546.824219,748.574463 550.057312,738.633362 553.935303,728.948669 
	C554.993530,726.305908 557.837708,724.378235 560.240479,722.051392 
z"/>
<path fill="#FCFAF7" opacity="1.000000" stroke="none" 
	d="
M506.953217,825.965820 
	C504.299164,825.875244 501.639191,825.867188 498.992249,825.677490 
	C492.937073,825.243530 489.112915,822.193420 486.626587,816.479065 
	C484.055756,810.570435 480.555145,805.052490 477.281128,799.469177 
	C475.481903,796.400879 475.356049,793.873596 477.658783,790.856689 
	C482.700073,784.252014 487.292908,777.305908 492.296631,770.671021 
	C493.347900,769.276978 495.384796,767.754395 496.957214,767.765503 
	C507.927673,767.842224 518.893494,768.422607 529.864746,768.594727 
	C534.755432,768.671509 538.088257,770.292297 540.648804,774.784729 
	C544.010803,780.683350 548.484192,785.941406 551.992798,791.768066 
	C553.043213,793.512512 553.446350,796.853638 552.468689,798.408630 
	C547.607300,806.140137 542.232300,813.552856 536.904663,820.982056 
	C536.214600,821.944397 534.749817,822.351257 532.875977,823.110657 
	C528.831665,823.450806 525.543518,823.591797 522.281799,823.964478 
	C517.162903,824.549500 512.061829,825.290771 506.953217,825.965820 
z"/>
<path fill="#A61B18" opacity="1.000000" stroke="none" 
	d="
M507.371033,826.020691 
	C512.061829,825.290771 517.162903,824.549500 522.281799,823.964478 
	C525.543518,823.591797 528.831665,823.450806 532.540649,823.258545 
	C524.874329,826.927368 516.530151,828.310120 507.371033,826.020691 
z"/>
<path fill="#F9F3F2" opacity="1.000000" stroke="none" 
	d="
M493.086304,619.931702 
	C493.111328,619.946777 493.060364,620.100769 493.060364,620.100769 
	C493.060364,620.100769 493.186157,619.932861 493.123993,619.895508 
	C493.061829,619.858154 493.061279,619.916626 493.086304,619.931702 
z"/>
</svg>